<svg width="134" height="493" viewBox="0 0 134 493" fill="none" xmlns="http://www.w3.org/2000/svg">
<path d="M131.106 457.039H131.606V456.539L131.606 420.943V420.443H131.106H1H0.5V420.943L0.500001 448.776V448.934L0.590326 449.063L30.1341 491.287L30.4087 491.679L30.8126 491.422L56.9474 474.759L57.4008 474.47L57.0796 474.039L44.4177 457.039H131.106ZM131.106 401.621H131.606V401.121V367.228V366.728H131.106H84.5179C78.2329 366.728 73.8124 365.413 70.9738 363.234C68.1549 361.069 66.8372 358.007 66.8372 354.352C66.8372 352.256 67.3262 350.564 68.189 349.2C69.0529 347.833 70.3105 346.764 71.8935 345.945C75.0757 344.297 79.5228 343.681 84.5179 343.681H131.106H131.606V343.181V309.478V308.978H131.106H84.5179C78.2374 308.978 73.8123 307.618 70.9698 305.481C68.1435 303.356 66.8372 300.431 66.8372 297.17C66.8372 294.975 67.3281 293.236 68.1905 291.855C69.0532 290.474 70.3082 289.419 71.8884 288.623C75.0688 287.022 79.514 286.499 84.5179 286.499H131.106H131.606V285.999V252.106V251.606H131.106H76.7532C61.7226 251.606 51.4941 255.125 45.0227 261.136C38.5445 267.154 35.9146 275.591 35.9146 285.242C35.9146 297.542 40.2268 308.204 48.8905 315.505C39.6593 321.325 35.9146 330.893 35.9146 342.234C35.9146 351.362 39.8813 359.932 47.4241 366.728H38.3085H37.8085V367.228V401.121V401.621H38.3085H131.106ZM131.106 236.684H131.606V236.184V202.291V201.791H131.106H84.5179C78.2329 201.791 73.8124 200.476 70.9738 198.297C68.1549 196.132 66.8372 193.07 66.8372 189.416C66.8372 187.319 67.3262 185.628 68.189 184.263C69.0529 182.896 70.3105 181.827 71.8935 181.008C75.0757 179.36 79.5228 178.744 84.5179 178.744H131.106H131.606V178.244V144.541V144.041H131.106L84.5179 144.041C78.2373 144.041 73.8123 142.681 70.9698 140.544C68.1435 138.419 66.8372 135.494 66.8372 132.234C66.8372 130.038 67.3281 128.299 68.1905 126.919C69.0532 125.537 70.3082 124.482 71.8884 123.686C75.0688 122.085 79.514 121.562 84.5179 121.562L131.106 121.562H131.606V121.062V87.1695V86.6695H131.106H76.7532C61.7226 86.6695 51.4941 90.188 45.0227 96.1994C38.5445 102.217 35.9146 110.655 35.9146 120.305C35.9146 132.605 40.2268 143.267 48.8905 150.568C39.6593 156.388 35.9146 165.956 35.9146 177.298C35.9146 186.425 39.8813 194.995 47.4241 201.791H38.3085H37.8085V202.291L37.8085 236.184V236.684H38.3085H131.106ZM98.2544 45.4478C99.9598 39.7646 101.175 36.6547 102.224 34.9673C102.744 34.1312 103.2 33.6828 103.62 33.4365C104.032 33.1951 104.456 33.1205 104.971 33.1205C106.009 33.1205 106.794 33.5798 107.35 34.5896C107.929 35.6396 108.259 37.2903 108.259 39.6263C108.259 46.4737 104.923 54.5028 97.9678 62.3958L97.6069 62.8053L98.0465 63.129L118.879 78.4659L119.245 78.7356L119.548 78.3963C129.108 67.6908 133.5 54.6924 133.5 40.1943C133.5 26.9625 130.359 17.0358 124.863 10.4084C119.357 3.76882 111.537 0.5 102.32 0.5C93.1165 0.5 86.9077 3.14424 82.1782 8.50328C77.4847 13.8215 74.2876 21.7733 70.9746 32.2779C69.4607 36.913 68.2916 39.7525 67.282 41.4273C66.2721 43.1023 65.504 43.4812 64.8221 43.4812C63.7278 43.4812 62.9258 42.8712 62.3715 41.8694C61.8091 40.853 61.5344 39.4762 61.5344 38.1115C61.5344 32.4067 64.8649 24.7687 71.0353 18.9735L71.4846 18.5515L70.979 18.1989L48.4424 2.48332L48.0349 2.19917L47.7481 2.60479C39.9311 13.6608 35.9146 23.9846 35.9146 39.2476C35.9146 48.9917 38.6373 58.0102 43.9803 64.6032C49.333 71.2085 57.2893 75.3444 67.6628 75.3444C76.6221 75.3444 83.1478 71.8198 87.9948 66.2987C92.8241 60.7979 95.9741 53.3317 98.2544 45.4478Z" stroke="white" stroke-opacity="0.07"/>
</svg>
