<svg width="243" height="145" fill="none" xmlns="http://www.w3.org/2000/svg"><rect x=".5" y=".5" width="242" height="144" rx="72" stroke="#424242"/><path fill-rule="evenodd" clip-rule="evenodd" d="M45.262 81.249c0 .07-.075.102-.25.102-.181 0-.25.03-.25.108 0 .06-.065.124-.143.144-.079.02-.143.078-.143.13 0 .051-.049.093-.108.093s-.107.04-.107.087c0 .048-.064.14-.143.204-.079.064-.143.177-.143.253 0 .076-.047.136-.107.136a.105.105 0 0 0-.107.102c0 .057-.064.102-.143.102-.079 0-.143.043-.143.094 0 .052-.065.11-.143.13-.079.02-.143.084-.143.144 0 .06-.048.108-.108.108-.059 0-.107.043-.107.097 0 .053-.096.116-.214.14-.118.025-.215.09-.215.142a.098.098 0 0 1-.099.097c-.054 0-.115.061-.136.136-.02.075-.089.136-.151.136-.063 0-.114.046-.114.102 0 .056-.064.102-.143.102-.08 0-.143.045-.143.102a.105.105 0 0 1-.107.102c-.06 0-.108.06-.108.136 0 .09-.047.136-.142.136-.08 0-.144.043-.144.096 0 .053-.093.116-.208.14-.115.024-.226.088-.248.142a.173.173 0 0 1-.149.097c-.06 0-.11.046-.11.102 0 .057-.063.102-.142.102-.08 0-.143.044-.143.097 0 .053-.097.117-.215.141-.118.025-.214.088-.214.141 0 .063-.077.097-.215.097-.143 0-.214.034-.214.102 0 .056-.063.102-.14.102a.257.257 0 0 0-.202.107c-.035.059-.197.124-.361.145-.185.023-.298.073-.298.13 0 .064-.092.094-.287.094-.198 0-.324.042-.409.136-.067.075-.164.136-.214.136-.05 0-.091.046-.091.102 0 .056-.064.102-.143.102-.116 0-.143.045-.143.238 0 .166-.032.237-.107.237-.094 0-.108.355-.108 2.788 0 2.362.016 2.787.102 2.787.056 0 .122.09.148.201.038.165.093.21.301.248.348.062 1.324-.024 1.388-.122.03-.046.306-.092.665-.11.434-.022.614-.056.614-.117 0-.063.189-.094.681-.11.432-.016.702-.055.736-.107.03-.046.309-.102.64-.128l.588-.047v.86c0 .674-.02.86-.096.86-.074 0-.107.228-.142.997-.031.694-.073 1.014-.136 1.05-.066.04-.098.363-.115 1.178-.019.884-.044 1.125-.12 1.125-.075 0-.1.223-.119 1.022-.017.785-.046 1.036-.123 1.081-.076.044-.108.305-.135 1.085-.027.805-.056 1.026-.132 1.026-.079 0-.098.225-.098 1.156 0 .927-.019 1.155-.096 1.155-.075 0-.109.229-.149 1.003-.038.76-.076 1.016-.153 1.057-.082.044-.102.274-.102 1.173 0 .892-.02 1.118-.096 1.118-.075 0-.106.231-.138 1.029-.029.704-.07 1.046-.13 1.082-.06.036-.098.376-.122 1.111-.026.835-.054 1.06-.131 1.06-.075 0-.098.13-.098.544 0 .438.021.544.107.544.06 0 .108.06.108.136 0 .09.047.136.143.136.079 0 .143.045.143.102 0 .089.508.102 4.146.102s4.147-.013 4.147-.102c0-.056.048-.102.107-.102s.107-.045.107-.099c0-.054.056-.128.125-.165.105-.056.13-.188.15-.819.018-.572.047-.753.12-.753.074 0 .1-.224.118-1.022.018-.785.047-1.036.123-1.081.077-.044.109-.305.135-1.085.027-.805.056-1.026.132-1.026.079 0 .098-.225.098-1.156 0-.927.02-1.155.097-1.155.075 0 .108-.229.148-1.003.039-.759.076-1.016.153-1.057.082-.043.102-.265.102-1.105 0-.844.02-1.05.098-1.05s.105-.233.13-1.127c.025-.837.058-1.142.128-1.183.07-.041.104-.331.13-1.082.027-.805.055-1.026.132-1.026.078 0 .097-.204.097-1.017 0-.816.02-1.027.104-1.07.08-.044.115-.301.154-1.143.03-.666.08-1.105.128-1.135.05-.03.087-.433.102-1.105.017-.8.045-1.056.114-1.056.068 0 .104-.278.14-1.102.034-.744.079-1.119.137-1.153.06-.036.094-.39.11-1.175.02-.882.045-1.124.12-1.124.074 0 .1-.21.12-.92.016-.668.048-.936.116-.976.069-.04.106-.361.136-1.187.033-.884.064-1.132.139-1.132.074 0 .096-.155.096-.68 0-.576-.017-.68-.114-.68-.062 0-.13-.06-.151-.135-.028-.103-.098-.136-.28-.136-.167 0-.241-.032-.241-.102 0-.09-.45-.102-3.61-.102-3.162 0-3.611.012-3.611.102Zm149.692 2.068c-.013.034-.627.084-1.364.111-1.056.039-1.34.069-1.34.142 0 .069-.127.092-.501.092-.385 0-.5.022-.5.096 0 .07-.134.11-.465.144-.324.033-.465.076-.465.142 0 .068-.106.094-.393.094-.302 0-.393.023-.393.102 0 .066-.07.102-.199.102-.11 0-.253.06-.321.136-.079.088-.211.136-.373.136-.166 0-.251.031-.251.094 0 .054-.107.113-.25.139-.138.025-.25.072-.25.106s-.113.082-.251.107c-.143.025-.25.085-.25.139 0 .052-.064.094-.143.094-.079 0-.143.046-.143.102 0 .057-.063.102-.144.102a.43.43 0 0 0-.266.136c-.067.075-.163.136-.213.136a.093.093 0 0 0-.092.094c0 .055-.107.114-.25.14-.15.026-.25.084-.25.143 0 .054-.048.099-.107.099s-.108.046-.108.102c0 .056-.063.102-.143.102-.079 0-.143.045-.143.102a.105.105 0 0 1-.107.102c-.059 0-.107.06-.107.136 0 .11-.048.136-.25.136-.175 0-.251.03-.251.102a.105.105 0 0 1-.107.102c-.059 0-.107.06-.107.136 0 .09-.048.135-.143.135-.079 0-.143.046-.143.102a.105.105 0 0 1-.107.103c-.06 0-.107.06-.107.135 0 .076-.048.136-.108.136-.059 0-.107.04-.107.087 0 .048-.064.14-.143.204-.079.064-.143.177-.143.252 0 .077-.047.137-.107.137-.059 0-.107.043-.107.094 0 .052-.065.11-.143.13-.104.026-.143.093-.143.246 0 .141-.035.21-.108.21-.059 0-.107.06-.107.136 0 .075-.047.136-.104.136-.062 0-.123.095-.151.238-.027.136-.089.238-.146.238-.07 0-.099.09-.099.306 0 .215-.029.305-.1.305-.056 0-.119.1-.144.232-.026.127-.093.248-.151.27-.078.028-.106.154-.106.482 0 .327-.025.444-.096.444-.072 0-.108.178-.141.696-.025.383-.078.707-.118.72-.044.013-.074.294-.074.691 0 .397.03.678.074.692.04.013.093.337.118.72.033.517.069.695.141.695.068 0 .096.1.096.34 0 .243.028.34.098.34.064 0 .115.12.146.34.032.233.08.34.152.34s.105.074.105.238c0 .158.033.238.099.238.057 0 .119.101.146.238.028.142.089.238.151.238.057 0 .104.06.104.136 0 .075.048.135.107.135.072 0 .108.069.108.205 0 .158.031.203.143.203.095 0 .143.046.143.136 0 .076.047.136.107.136.059 0 .107.046.107.102 0 .056.048.102.107.102s.108.049.108.109.064.124.143.143c.078.02.143.078.143.13 0 .052.048.094.107.094s.107.042.107.094.064.11.143.13c.079.019.143.084.143.144 0 .059.048.108.107.108s.107.046.107.102c0 .056.064.102.143.102.08 0 .143.045.143.102 0 .056.049.102.108.102s.107.06.107.136c0 .11.048.136.25.136.175 0 .25.03.25.102 0 .056.049.102.108.102s.107.044.107.099c0 .059.1.116.25.143.143.026.25.085.25.139 0 .052.065.094.143.094.079 0 .143.045.143.099 0 .059.101.117.25.144.144.025.251.085.251.139 0 .059.079.094.214.094.141 0 .215.035.215.1 0 .068.112.114.357.145.232.029.358.077.358.138 0 .061.086.093.25.093s.25.032.25.093.117.106.333.129c.2.021.358.079.396.145.044.074.165.109.383.109.235 0 .318.027.318.102 0 .078.091.102.393.102.286 0 .393.025.393.093 0 .061.126.109.358.138.245.031.357.077.357.145 0 .074.091.1.358.1.27 0 .357.025.357.102 0 .071.076.102.253.102.156 0 .267.038.292.1.023.055.15.119.284.143.138.025.243.084.243.138 0 .06.08.094.215.094.14 0 .214.035.214.099 0 .06.101.117.251.144.143.025.25.085.25.139 0 .052.048.094.107.094.075 0 .107.072.107.238 0 .166.033.238.108.238.127 0 .153.45.028.489-.043.014-.095.17-.116.346-.025.209-.072.321-.136.321a.096.096 0 0 0-.098.094c0 .054-.106.113-.245.138-.135.024-.257.077-.271.116-.014.04-.177.089-.362.109-.22.024-.337.069-.337.129 0 .072-.141.093-.608.093-.493 0-.608-.019-.608-.101 0-.074-.078-.102-.277-.102-.421 0-.724-.075-.724-.179 0-.067-.102-.093-.357-.093-.27 0-.358-.025-.358-.102 0-.072-.075-.102-.25-.102-.165 0-.25-.032-.25-.094 0-.103-.212-.176-.518-.177-.127-.001-.197-.037-.197-.103 0-.071-.076-.102-.25-.102-.172 0-.25-.031-.25-.099 0-.059-.101-.117-.251-.144-.143-.025-.25-.084-.25-.139 0-.051-.064-.094-.143-.094-.079 0-.143-.045-.143-.102 0-.068-.071-.102-.214-.102-.14 0-.215-.034-.215-.099 0-.059-.1-.117-.25-.143-.143-.026-.25-.085-.25-.139 0-.061-.08-.095-.221-.095-.161 0-.232-.037-.259-.136a.19.19 0 0 0-.172-.136c-.074 0-.135-.045-.135-.102 0-.068-.071-.102-.214-.102-.135 0-.215-.034-.215-.094 0-.054-.107-.113-.25-.139-.137-.025-.25-.07-.25-.102 0-.032-.087-.078-.194-.104-.136-.033-.218-.015-.276.06-.045.059-.183.126-.306.15-.124.023-.225.085-.225.136 0 .051-.048.093-.107.093a.105.105 0 0 0-.107.102c0 .057-.052.102-.114.102-.063 0-.131.062-.152.136-.02.075-.082.136-.136.136a.101.101 0 0 0-.099.102.105.105 0 0 1-.107.102c-.06 0-.107.061-.107.136 0 .075-.046.136-.102.136-.056 0-.123.092-.149.204-.025.112-.092.204-.148.204-.056 0-.102.061-.102.136 0 .091-.048.136-.143.136-.095 0-.143.045-.143.136 0 .075-.047.136-.107.136-.072 0-.107.068-.107.204 0 .128-.037.204-.099.204-.055 0-.116.061-.136.136-.021.074-.089.136-.152.136-.062 0-.114.045-.114.102a.1.1 0 0 1-.099.101c-.057 0-.119.102-.146.238-.028.143-.089.238-.151.238a.104.104 0 0 0-.104.102.101.101 0 0 1-.099.102c-.057 0-.12.102-.147.238-.028.143-.088.238-.151.238-.057 0-.104.043-.104.095 0 .052-.048.112-.107.134-.059.021-.107.086-.107.143a.106.106 0 0 1-.107.104.107.107 0 0 0-.108.104.166.166 0 0 1-.102.142c-.057.02-.124.126-.149.235-.025.109-.092.199-.147.199-.056 0-.102.061-.102.136 0 .09-.048.136-.143.136-.095 0-.143.045-.143.136 0 .075-.048.135-.107.135-.08 0-.107.08-.107.306 0 .227-.028.306-.108.306-.075 0-.107.072-.107.238 0 .166.032.238.107.238s.108.072.108.238c0 .166.032.238.107.238.059 0 .107.042.107.094s.064.11.143.13c.079.019.143.084.143.143 0 .075.066.109.214.109.143 0 .215.034.215.102 0 .056.064.102.143.102.079 0 .143.044.143.099 0 .059.1.116.25.143.144.026.25.085.25.139 0 .052.065.095.144.095.079 0 .199.061.266.135.068.075.16.136.206.136.046 0 .103.046.125.102.024.06.131.102.258.102.137 0 .217.035.217.095 0 .054.107.113.25.139.138.024.25.072.25.106s.113.082.25.107c.144.025.251.085.251.139 0 .062.084.094.25.094.165 0 .25.032.25.094 0 .103.212.176.518.177.127.001.197.037.197.103 0 .077.087.102.357.102.267 0 .358.025.358.1 0 .068.113.113.357.144.232.03.358.078.358.139 0 .066.102.093.357.093.257 0 .358.026.358.094s.132.102.469.122c.291.018.493.064.53.121.039.061.259.103.639.124.426.024.578.057.578.125 0 .078.517.094 3.074.094s3.074-.016 3.074-.094c0-.068.153-.101.579-.125.376-.02.599-.064.638-.123.034-.053.237-.103.493-.121.307-.021.435-.057.435-.123 0-.068.101-.094.358-.094.26 0 .357-.026.357-.096 0-.059.11-.114.286-.142.176-.028.286-.083.286-.142 0-.07.097-.096.357-.096.262 0 .358-.026.358-.097 0-.053.094-.116.208-.14.115-.024.227-.087.248-.141.023-.055.134-.098.257-.098.145 0 .216-.034.216-.102 0-.056.064-.102.143-.102.079 0 .143-.044.143-.099 0-.059.101-.116.25-.143.144-.026.251-.085.251-.139 0-.06.079-.095.214-.095s.215-.035.215-.094c0-.051.064-.11.143-.129.078-.02.143-.085.143-.144 0-.063.059-.108.143-.108.079 0 .143-.046.143-.102 0-.068.071-.102.214-.102.167 0 .215-.031.215-.136 0-.091.047-.136.142-.136.08 0 .143-.046.143-.102 0-.056.049-.102.108-.102s.107-.043.107-.094c0-.052.064-.11.143-.13.079-.019.143-.084.143-.144 0-.074.065-.108.206-.108.18 0 .213-.031.254-.238.028-.142.089-.238.151-.238a.104.104 0 0 0 .104-.102c0-.056.048-.102.107-.102s.107-.042.107-.094.065-.11.143-.129c.079-.02.143-.085.143-.144 0-.06.049-.109.108-.109.071 0 .107-.068.107-.204 0-.137.035-.204.109-.204.06 0 .13-.053.156-.118a.389.389 0 0 1 .14-.174c.053-.03.095-.144.095-.255 0-.133.036-.2.107-.2.075 0 .108-.072.108-.238 0-.193.027-.238.143-.238.115 0 .143-.045.143-.238 0-.166.032-.238.107-.238.081 0 .107-.083.107-.34 0-.246.028-.34.1-.34.071 0 .114-.136.15-.476.036-.339.079-.475.151-.475.082 0 .1-.275.1-1.598s-.018-1.597-.1-1.597c-.072 0-.115-.137-.151-.476-.036-.34-.079-.476-.15-.476-.072 0-.1-.094-.1-.34 0-.257-.026-.34-.107-.34-.074 0-.107-.071-.107-.23 0-.172-.036-.238-.143-.265-.104-.026-.143-.093-.143-.246 0-.134-.036-.21-.1-.21-.056 0-.119-.102-.146-.238-.028-.143-.089-.238-.151-.238a.104.104 0 0 1-.104-.102.105.105 0 0 0-.107-.102c-.06 0-.107-.061-.107-.136 0-.075-.046-.136-.102-.136-.056 0-.122-.09-.147-.2-.035-.149-.099-.21-.256-.243-.116-.024-.211-.08-.211-.123-.002-.097-.312-.386-.415-.386-.04 0-.094-.09-.119-.2-.035-.149-.099-.21-.256-.242-.116-.025-.21-.088-.21-.14 0-.054-.048-.097-.107-.097s-.108-.046-.108-.102c0-.057-.063-.102-.143-.102-.078 0-.142-.044-.142-.097 0-.053-.097-.117-.215-.141-.118-.025-.214-.089-.214-.142 0-.053-.065-.096-.143-.096-.079 0-.143-.043-.143-.095 0-.054-.107-.113-.251-.139-.149-.026-.25-.084-.25-.143 0-.065-.074-.099-.214-.099-.136 0-.215-.035-.215-.094 0-.054-.105-.114-.243-.138-.134-.024-.262-.089-.284-.144-.023-.057-.132-.1-.257-.1-.145 0-.217-.034-.217-.102 0-.071-.075-.102-.25-.102-.171 0-.25-.031-.25-.099 0-.059-.101-.117-.25-.143-.144-.026-.251-.085-.251-.14 0-.067-.1-.094-.357-.094-.255 0-.358-.026-.358-.093 0-.06-.116-.105-.332-.129-.2-.021-.358-.079-.397-.144-.045-.078-.167-.11-.418-.11-.267 0-.354-.025-.354-.101 0-.077-.087-.102-.357-.102-.257 0-.358-.027-.358-.094 0-.114-.218-.176-.625-.177-.222-.001-.304-.029-.304-.103s-.08-.102-.286-.102c-.195 0-.286-.03-.286-.093 0-.06-.125-.11-.358-.139-.244-.03-.357-.076-.357-.144 0-.069-.078-.1-.25-.1-.169 0-.25-.032-.25-.097 0-.053-.097-.116-.215-.141-.118-.025-.214-.088-.214-.141 0-.053-.065-.097-.143-.097-.112 0-.143-.045-.143-.204 0-.136-.036-.204-.108-.204-.082 0-.107-.087-.107-.374 0-.287.025-.374.107-.374.072 0 .108-.067.108-.203 0-.142.035-.204.114-.204.062 0 .13-.061.151-.136.026-.097.097-.136.243-.136.127 0 .207-.036.207-.093 0-.06.115-.106.325-.128.191-.02.363-.084.415-.152.077-.1.197-.113.857-.093.522.016.785.052.823.11.031.048.223.106.427.13.243.026.37.073.37.133 0 .066.103.093.357.093.258 0 .358.026.358.094 0 .054.106.114.25.14.15.026.25.084.25.143 0 .067.079.099.25.099.175 0 .25.03.25.102 0 .068.072.102.217.102.123 0 .234.042.256.097.022.054.134.118.248.142.115.024.209.087.209.14 0 .064.08.096.242.096.182 0 .251.034.279.136.021.075.089.136.151.136.063 0 .114.046.114.102 0 .072.076.102.251.102.166 0 .25.032.25.096 0 .065.132.11.426.142.525.058 1.004-.01 1.004-.142 0-.053.064-.096.143-.096.079 0 .143-.045.143-.102 0-.056.048-.102.107-.102s.107-.06.107-.136c0-.075.048-.136.107-.136s.108-.045.108-.102c0-.056.051-.102.113-.102.063 0 .131-.06.152-.136.02-.074.082-.135.136-.135.062 0 .099-.076.099-.204 0-.136.036-.204.107-.204.06 0 .107-.06.107-.136 0-.09.048-.136.143-.136.096 0 .143-.046.143-.136 0-.075.046-.136.102-.136.056 0 .123-.092.149-.204.026-.112.092-.204.148-.204.056 0 .102-.061.102-.136 0-.076.048-.136.107-.136a.105.105 0 0 0 .107-.102c0-.056.046-.102.102-.102.056 0 .122-.089.147-.198.025-.11.092-.215.149-.236a.165.165 0 0 0 .103-.142c0-.057.048-.104.107-.104a.108.108 0 0 0 .107-.108c0-.06.065-.124.143-.144.102-.025.143-.093.143-.231 0-.13.037-.196.107-.196.06 0 .108-.06.108-.136 0-.09.047-.136.143-.136.079 0 .143-.046.143-.102 0-.056.048-.102.107-.102.075 0 .107-.072.107-.238 0-.193.027-.238.143-.238.08 0 .143-.045.143-.102 0-.056.048-.102.107-.102.06 0 .108-.06.108-.136 0-.075.047-.136.107-.136.059 0 .107-.06.107-.136 0-.075.045-.136.099-.136.131 0 .185-.213.186-.73.001-.333-.022-.425-.106-.425a.105.105 0 0 1-.107-.102c0-.057-.064-.102-.143-.102-.096 0-.143-.046-.143-.136 0-.075-.045-.136-.1-.136-.055 0-.118-.046-.141-.102a.175.175 0 0 0-.15-.102c-.061 0-.11-.046-.11-.102 0-.071-.075-.102-.25-.102-.203 0-.25-.026-.25-.136 0-.106-.048-.136-.215-.136-.143 0-.214-.034-.214-.102 0-.056-.064-.102-.143-.102-.079 0-.143-.044-.143-.099 0-.059-.101-.117-.25-.143-.144-.026-.251-.085-.251-.14 0-.062-.084-.094-.25-.094-.168 0-.25-.031-.25-.096 0-.053-.094-.116-.209-.14-.114-.024-.226-.088-.248-.142-.022-.055-.133-.098-.256-.098-.145 0-.217-.033-.217-.101 0-.071-.074-.102-.241-.102-.182 0-.252-.034-.28-.136-.03-.111-.097-.136-.365-.136-.245 0-.329-.026-.329-.102 0-.074-.079-.102-.286-.102-.196 0-.286-.03-.286-.094 0-.066-.141-.109-.465-.142-.33-.033-.464-.075-.464-.144 0-.075-.131-.096-.608-.096-.464 0-.608-.022-.608-.093 0-.072-.284-.102-1.34-.14-.737-.028-1.351-.078-1.364-.112-.013-.035-.228-.063-.477-.063-.249 0-.463.028-.477.063Zm-117.306.243c0 .082-.115.102-.603.102-.448 0-.63.027-.713.105-.06.058-.272.123-.47.145-.234.027-.359.073-.359.133 0 .066-.103.093-.357.093-.27 0-.358.025-.358.102 0 .07-.074.102-.242.102-.181 0-.25.033-.279.136-.027.099-.097.136-.258.136-.14 0-.222.034-.222.093 0 .06-.117.105-.332.128-.2.022-.358.08-.397.145-.035.06-.11.11-.168.11a.103.103 0 0 0-.103.101c0 .072-.076.102-.25.102-.17 0-.251.032-.251.097 0 .053-.097.117-.215.141-.117.025-.214.088-.214.141 0 .054-.064.097-.143.097-.079 0-.143.044-.143.097 0 .053-.094.116-.208.14-.115.024-.227.087-.248.141-.094.231-.754-.024-.758-.293 0-.047-.05-.085-.108-.085-.075 0-.108-.072-.108-.238 0-.156-.033-.238-.098-.238-.118 0-.188-.293-.188-.79 0-.28-.025-.365-.107-.365-.06 0-.107-.06-.107-.136 0-.135-.048-.136-4.317-.136-2.373 0-4.416.019-4.54.042-.122.024-.223.085-.223.136 0 .052-.048.094-.107.094-.071 0-.107.068-.107.204 0 .126-.037.204-.097.204-.109 0-.19.54-.19 1.267 0 .339-.022.432-.106.432-.091 0-.108.162-.108 1.054 0 .89-.016 1.053-.107 1.053-.09 0-.107.17-.107 1.118 0 .944-.018 1.128-.112 1.178-.091.049-.12.265-.154 1.193-.033.885-.063 1.134-.138 1.134-.077 0-.096.232-.096 1.155 0 .982-.017 1.156-.108 1.156-.086 0-.108.105-.111.527-.007.884-.074 1.542-.162 1.594-.057.033-.091.406-.107 1.173-.017.867-.044 1.124-.116 1.124-.071 0-.1.262-.125 1.127-.025.848-.057 1.142-.13 1.184-.072.043-.104.337-.129 1.184-.025.895-.052 1.128-.13 1.128-.079 0-.098.206-.098 1.053 0 .839-.02 1.054-.096 1.054-.099 0-.19.901-.19 1.88 0 .338-.023.431-.107.431-.091 0-.107.174-.107 1.156 0 .924-.02 1.155-.097 1.155-.075 0-.107.252-.147 1.137-.034.762-.078 1.154-.136 1.187-.112.066-.116 1.061-.005 1.129.045.026.103.147.131.269.028.123.096.221.152.221.056 0 .102.061.102.136 0 .106.047.136.214.136.143 0 .215.034.215.102 0 .09.675.102 5.648.102 4.972 0 5.647-.012 5.647-.102 0-.057.064-.102.143-.102.08 0 .143-.046.143-.102 0-.056.049-.102.108-.102.082 0 .107-.087.107-.374 0-.267.027-.374.096-.374.075 0 .106-.269.143-1.236.033-.875.073-1.252.136-1.289.064-.038.096-.372.113-1.177.02-.913.044-1.124.126-1.124.083 0 .1-.205.1-1.152 0-.974.018-1.162.112-1.212.092-.049.12-.265.154-1.193.033-.885.064-1.134.139-1.134.077 0 .096-.237.096-1.189 0-1.012.016-1.19.107-1.19.087 0 .108-.113.112-.595.008-1.151.072-1.815.18-1.872.082-.044.102-.28.102-1.207 0-.979.016-1.152.107-1.152.06 0 .107-.06.107-.137 0-.075.064-.189.143-.253.079-.064.143-.155.143-.203 0-.048.065-.087.144-.087a.427.427 0 0 0 .266-.136c.067-.075.163-.136.214-.136.05 0 .091-.046.091-.102 0-.056.048-.102.107-.102.06 0 .108-.042.108-.094 0-.054.106-.113.25-.139.15-.027.25-.084.25-.144 0-.054.064-.098.143-.098.08 0 .143-.046.143-.102 0-.072.075-.102.25-.102.169 0 .25-.032.25-.097 0-.069.135-.11.465-.144.324-.033.465-.076.465-.141 0-.076.212-.094 1.108-.094.898 0 1.108.018 1.108.094 0 .054.107.114.25.14.15.026.25.084.25.143 0 .064.075.099.215.099.143 0 .214.034.214.102 0 .056.064.102.143.102.096 0 .143.045.143.136 0 .075.048.135.108.135.058 0 .107.045.107.099 0 .054.05.126.112.159.062.032.13.187.153.343.024.176.077.283.137.283.08 0 .098.349.098 1.972 0 1.619-.017 1.971-.097 1.971-.077 0-.105.221-.133 1.026-.025.751-.06 1.041-.129 1.082-.07.041-.103.346-.127 1.183-.025.863-.054 1.127-.126 1.127-.07 0-.098.241-.115 1.022-.016.696-.05 1.039-.108 1.073-.056.032-.103.405-.136 1.085-.04.8-.073 1.035-.147 1.035-.078 0-.097.23-.097 1.155 0 .982-.016 1.156-.107 1.156-.075 0-.108.072-.108.238 0 .166.033.238.108.238.086 0 .107.106.107.546 0 .418.025.555.105.584.058.021.126.143.151.27.026.131.089.231.145.231.055 0 .1.046.1.102 0 .056.048.102.107.102.06 0 .107.061.107.136 0 .091.047.136.143.136.08 0 .143.045.143.102 0 .056.048.102.107.102s.107.042.107.094.065.11.143.13c.079.019.143.084.143.143 0 .079.07.109.25.109.175 0 .25.031.25.102 0 .089.644.102 5.363.102 4.718 0 5.361-.013 5.361-.102 0-.056.048-.102.106-.102.09 0 .108-.463.125-3.436.016-2.857.037-3.445.12-3.494.076-.044.108-.305.135-1.085.027-.805.055-1.026.132-1.026.078 0 .097-.209.097-1.054 0-.891.017-1.053.108-1.053.085 0 .107-.101.107-.493.001-.907.084-1.615.19-1.615.076 0 .096-.213.096-1.053s.02-1.054.096-1.054.106-.24.137-1.097c.022-.612.072-1.115.111-1.138.04-.023.094-.157.122-.297.03-.15.091-.255.15-.255a.1.1 0 0 0 .099-.102c0-.056.063-.102.143-.102.08 0 .143-.045.143-.102 0-.056.048-.102.107-.102.06 0 .107-.06.107-.136 0-.11.048-.136.25-.136.175 0 .25-.03.25-.102 0-.056.049-.102.108-.102s.107-.044.107-.098c0-.06.1-.117.25-.144.144-.026.25-.085.25-.139 0-.063.085-.094.25-.094.165 0 .251-.032.251-.094 0-.1.3-.178.688-.178.167 0 .241-.032.241-.102 0-.086.16-.102 1.001-.102.842 0 1.001.016 1.001.102 0 .065.07.102.197.103.306.001.518.074.518.177 0 .062.085.094.25.094.175 0 .25.03.25.102 0 .056.049.102.108.102.06 0 .107.06.107.136 0 .074.046.135.102.135.055 0 .122.092.148.204.026.112.093.204.149.204.07 0 .102.083.102.272 0 .185.03.272.097.272.127 0 .188.434.188 1.325 0 1.22-.081 2.142-.19 2.142-.076 0-.096.21-.096 1.02 0 .815-.02 1.019-.097 1.019s-.105.221-.132 1.026c-.025.741-.06 1.042-.128 1.081-.067.04-.103.341-.128 1.081-.026.771-.057 1.027-.126 1.027-.07 0-.097.269-.115 1.124-.019.872-.047 1.137-.124 1.183-.076.044-.109.305-.135 1.085-.027.805-.056 1.026-.132 1.026-.15 0-.141 1.552.01 1.607.058.022.107.12.108.219.001.284.078.485.186.485.065 0 .099.081.099.238 0 .166.032.238.107.238.059 0 .107.039.107.087 0 .048.064.139.143.203.079.064.143.178.143.253 0 .107.047.137.215.137.148 0 .214.033.214.108 0 .06.064.125.143.144.079.02.143.078.143.13 0 .062.085.094.25.094.175 0 .25.031.25.102 0 .089.644.102 5.362.102 4.719 0 5.362-.013 5.362-.102 0-.056.046-.102.102-.102.134 0 .208-.343.148-.681-.03-.171-.086-.271-.152-.271-.09 0-.102-.245-.083-1.702.015-1.229.045-1.716.106-1.752.06-.035.102-.484.137-1.459.039-1.112.07-1.409.146-1.409.077 0 .097-.226.097-1.121s.019-1.122.096-1.122c.075 0 .105-.248.138-1.133.035-.929.063-1.145.154-1.193.095-.05.112-.235.112-1.178 0-.894.019-1.118.097-1.118.075 0 .105-.245.136-1.131.027-.8.065-1.146.129-1.183.063-.037.1-.364.124-1.113.026-.835.054-1.06.131-1.06.08 0 .098-.292.098-1.597 0-1.315-.018-1.598-.099-1.598-.076 0-.106-.16-.128-.683-.02-.488-.057-.701-.128-.743-.061-.035-.112-.22-.131-.472-.022-.291-.061-.413-.13-.413-.068 0-.099-.086-.099-.272 0-.186-.031-.272-.099-.272-.103 0-.184-.199-.186-.458-.001-.09-.045-.153-.108-.153-.075 0-.107-.072-.107-.238 0-.158-.034-.238-.1-.238-.057 0-.119-.102-.146-.238-.028-.142-.089-.238-.151-.238-.057 0-.104-.061-.104-.136 0-.076-.048-.136-.107-.136-.072 0-.107-.069-.107-.21 0-.153-.039-.22-.143-.246-.079-.02-.143-.078-.143-.13 0-.051-.049-.094-.108-.094-.071 0-.107-.068-.107-.204 0-.14-.035-.204-.114-.204-.062 0-.13-.06-.151-.135-.021-.075-.082-.137-.136-.137-.055 0-.099-.06-.099-.135 0-.076-.048-.136-.107-.136s-.108-.046-.108-.102c0-.057-.063-.102-.143-.102-.079 0-.143-.046-.143-.102a.105.105 0 0 0-.107-.102c-.059 0-.107-.06-.107-.136 0-.09-.048-.136-.143-.136-.08 0-.143-.046-.143-.102a.105.105 0 0 0-.107-.102c-.059 0-.108-.044-.108-.097 0-.053-.096-.116-.214-.141-.118-.025-.215-.088-.215-.141 0-.053-.06-.097-.134-.097a.19.19 0 0 1-.172-.136c-.021-.075-.089-.136-.152-.136-.062 0-.113-.046-.113-.102 0-.068-.072-.102-.215-.102-.143 0-.214-.034-.214-.102 0-.056-.064-.102-.143-.102-.079 0-.143-.044-.143-.099 0-.059-.101-.116-.251-.143-.143-.026-.25-.085-.25-.14 0-.062-.084-.093-.25-.093-.165 0-.25-.032-.25-.095 0-.103-.212-.175-.519-.176-.126-.001-.196-.038-.196-.103 0-.072-.076-.102-.25-.102-.166 0-.251-.032-.251-.094 0-.066-.139-.109-.459-.141-.296-.03-.473-.081-.498-.144-.029-.073-.182-.097-.613-.097-.463 0-.574-.02-.574-.102 0-.089-.294-.102-2.217-.102-1.922 0-2.216.013-2.216.102 0 .082-.115.102-.608.102-.47 0-.607.021-.607.094 0 .066-.141.108-.465.141-.33.034-.465.075-.465.144 0 .072-.1.097-.393.097-.302 0-.393.023-.393.102 0 .068-.072.102-.221.102-.161 0-.231.037-.259.136-.03.112-.097.136-.386.136-.263 0-.35.025-.35.102 0 .056-.063.101-.143.101a.426.426 0 0 0-.266.136c-.068.075-.18.136-.25.136s-.127.046-.127.102c0 .068-.071.102-.214.102-.136 0-.215.035-.215.095 0 .054-.107.113-.25.139-.15.026-.25.084-.25.143 0 .055-.065.1-.143.1-.079 0-.143.043-.143.096 0 .053-.097.116-.215.141-.118.025-.214.088-.214.141 0 .053-.064.097-.143.097-.08 0-.143.045-.143.102 0 .067-.07.102-.206.102-.146 0-.217.04-.244.136-.02.075-.088.136-.151.136s-.114.046-.114.102a.105.105 0 0 1-.107.102c-.06 0-.108.042-.108.094 0 .054-.106.114-.25.14-.15.026-.25.084-.25.143 0 .054-.048.098-.107.098a.105.105 0 0 0-.108.102c0 .057-.063.103-.142.103-.08 0-.143-.046-.143-.103a.105.105 0 0 0-.108-.102c-.06 0-.107-.06-.107-.135 0-.076-.048-.136-.107-.136a.105.105 0 0 1-.107-.102c0-.057-.064-.102-.143-.102-.096 0-.143-.046-.143-.136 0-.076-.048-.136-.108-.136a.105.105 0 0 1-.107-.102c0-.057-.063-.102-.143-.102-.095 0-.143-.046-.143-.136 0-.076-.047-.136-.107-.136a.105.105 0 0 1-.107-.102c0-.057-.064-.102-.143-.102-.08 0-.143-.045-.143-.102a.105.105 0 0 0-.108-.102c-.058 0-.107-.044-.107-.099 0-.059-.1-.117-.25-.143-.143-.026-.25-.085-.25-.14 0-.051-.064-.094-.143-.094-.079 0-.143-.043-.143-.096 0-.053-.097-.117-.215-.142-.118-.024-.214-.088-.214-.141 0-.053-.064-.097-.143-.097-.08 0-.143-.045-.143-.101 0-.072-.076-.102-.25-.102-.166 0-.25-.032-.25-.095 0-.103-.213-.175-.519-.176-.126-.001-.196-.038-.196-.103 0-.077-.088-.102-.358-.102s-.357-.025-.357-.102c0-.062-.067-.102-.17-.102-.322 0-.617-.085-.617-.179 0-.072-.14-.093-.607-.093-.493 0-.608-.02-.608-.102 0-.089-.306-.102-2.324-.102-2.017 0-2.323.013-2.323.102Zm61.626-.007c0 .07-.143.1-.575.12-.362.015-.596.056-.631.11-.031.048-.222.105-.426.128-.243.027-.37.073-.37.134 0 .066-.103.093-.357.093-.27 0-.358.025-.358.102 0 .07-.075.102-.25.102-.202 0-.25.026-.25.136 0 .117-.048.136-.358.136-.27 0-.357.024-.357.102 0 .056-.064.101-.143.101-.079 0-.143.045-.143.1 0 .058-.1.116-.25.143-.144.025-.25.085-.25.139 0 .06-.08.094-.215.094s-.214.035-.214.095c0 .054-.107.113-.251.139-.149.026-.25.084-.25.143 0 .055-.064.1-.143.1-.078 0-.143.043-.143.096 0 .053-.096.116-.214.141-.118.025-.215.088-.215.141 0 .065-.081.097-.25.097-.175 0-.25-.03-.25-.102a.105.105 0 0 0-.107-.102c-.06 0-.108-.06-.108-.136 0-.09-.047-.136-.143-.136-.115 0-.143-.045-.143-.238 0-.156-.033-.238-.098-.238-.072 0-.107-.145-.131-.55-.019-.302-.065-.57-.104-.595a.387.387 0 0 1-.116-.163c-.044-.112-.318-.12-4.392-.118-2.39 0-4.418.02-4.506.042-.089.022-.161.083-.161.135 0 .051-.064.094-.143.094-.093 0-.143.045-.143.13 0 .072-.04.143-.089.159-.064.02-.097.284-.113.923-.019.717-.044.895-.125.895-.078 0-.103.114-.106.493-.009 1.061-.076 1.715-.18 1.77-.081.044-.102.267-.102 1.105 0 .888-.016 1.05-.107 1.05s-.107.174-.107 1.156c0 .93-.019 1.156-.098 1.156-.127 0-.187.483-.188 1.512 0 .665-.018.799-.108.799-.091 0-.107.174-.107 1.155 0 .982-.016 1.156-.107 1.156-.086 0-.107.1-.108.493-.001.907-.083 1.614-.189 1.614-.077 0-.096.23-.096 1.156 0 .923-.02 1.155-.097 1.155-.075 0-.105.249-.138 1.132-.029.777-.07 1.148-.129 1.183-.059.035-.098.377-.122 1.078-.027.805-.055 1.026-.132 1.026-.078 0-.097.225-.097 1.155 0 .982-.016 1.156-.107 1.156-.082 0-.111.094-.12.391-.006.215-.017.467-.023.561-.007.093-.018.437-.024.764-.01.479-.033.595-.119.595-.091 0-.108.166-.108 1.088 0 .921-.016 1.088-.107 1.088-.088 0-.107.117-.107.645 0 .529.019.646.107.646.074 0 .107.071.107.23 0 .173.036.239.143.266.079.019.143.084.143.143 0 .075.066.109.215.109.143 0 .214.034.214.102 0 .09.675.102 5.648.102s5.648-.012 5.648-.102c0-.056.048-.102.107-.102a.105.105 0 0 0 .107-.102c0-.056.045-.102.099-.102.097 0 .187-.28.187-.581 0-.085.031-.166.068-.178.087-.03.133-.557.141-1.637.005-.704.025-.867.108-.867.084 0 .107-.204.125-1.124.018-.871.046-1.138.123-1.183.076-.045.108-.328.135-1.221.028-.919.056-1.162.132-1.162.079 0 .098-.226.098-1.156 0-.982.016-1.156.107-1.156.088 0 .109-.131.119-.73a34.989 34.989 0 0 1 .048-1.428c.009-.267.039-.357.119-.357.091 0 .107-.173.107-1.155 0-.934.019-1.156.098-1.156.078 0 .105-.237.13-1.16.021-.743.06-1.178.111-1.208.043-.026.101-.13.128-.233.027-.102.094-.186.149-.186.054 0 .099-.061.099-.136 0-.09.048-.136.144-.136a.425.425 0 0 0 .266-.136c.067-.075.163-.136.214-.136.05 0 .091-.046.091-.102 0-.056.064-.102.143-.102.079 0 .143-.043.143-.096 0-.053.094-.116.209-.14.114-.024.226-.088.248-.142a.17.17 0 0 1 .149-.097c.06 0 .109-.046.109-.102 0-.072.075-.102.25-.102.169 0 .25-.032.25-.097 0-.069.135-.11.465-.144.324-.033.465-.076.465-.141 0-.076.212-.094 1.108-.094.898 0 1.108.018 1.108.094 0 .054.105.113.243.138.134.024.262.088.284.144.023.057.132.1.257.1.145 0 .217.033.217.102 0 .056.048.102.107.102s.107.048.107.108.065.124.143.144c.08.02.143.093.143.163s.049.128.108.128c.079 0 .107.08.107.306 0 .215.029.306.098.306.147 0 .188.317.188 1.46 0 1.539-.072 2.483-.19 2.483-.076 0-.096.215-.096 1.053s-.02 1.054-.096 1.054-.106.248-.139 1.132c-.029.776-.069 1.148-.129 1.183-.059.035-.098.377-.121 1.077-.028.806-.056 1.026-.133 1.026-.078 0-.097.21-.097 1.054 0 .84-.02 1.054-.097 1.054-.109 0-.188.715-.189 1.716 0 .483-.02.595-.107.595-.075 0-.107.072-.107.238 0 .166.032.238.107.238.082 0 .107.086.107.365 0 .497.07.79.188.79.064 0 .098.082.098.238 0 .166.032.238.107.238.059 0 .107.046.107.102 0 .056.049.102.108.102s.107.049.107.108c0 .06.064.125.143.144.079.02.143.078.143.13 0 .052.048.094.107.094s.107.046.107.102c0 .057.064.102.143.102.096 0 .143.045.143.136 0 .11.048.136.251.136.174 0 .25.031.25.102 0 .089.643.102 5.362.102 4.718 0 5.362-.013 5.362-.102 0-.059.064-.102.151-.102.151 0 .151 0 .098-1.666-.071-2.239.015-5.132.152-5.132.08 0 .099-.21.099-1.121 0-.952.016-1.122.107-1.122.086 0 .108-.1.108-.493.001-.907.083-1.614.189-1.614.077 0 .096-.214.096-1.054 0-.845.02-1.054.098-1.054.077 0 .105-.22.132-1.026.025-.747.06-1.041.129-1.082.07-.04.103-.344.128-1.148.026-.865.053-1.094.131-1.094.066 0 .097-.087.097-.272 0-.196.03-.272.108-.272a.105.105 0 0 0 .107-.102c0-.056.063-.102.143-.102.078 0 .143-.042.143-.094 0-.051.064-.11.143-.13.078-.019.143-.084.143-.143 0-.075.066-.109.214-.109.143 0 .215-.034.215-.102 0-.056.049-.102.109-.102s.127-.044.149-.097c.022-.054.133-.118.248-.142.115-.024.209-.087.209-.14 0-.065.081-.096.246-.096.157 0 .272-.042.314-.114.048-.082.193-.123.504-.145.309-.02.437-.057.437-.123 0-.076.198-.094 1.001-.094.8 0 1.001.019 1.001.093 0 .06.125.109.357.138.245.031.358.077.358.145 0 .065.073.1.214.1.135 0 .215.034.215.094 0 .051.064.11.143.13.078.019.143.084.143.143 0 .06.048.108.107.108.071 0 .107.068.107.204 0 .13.037.204.101.204.062 0 .12.105.149.272.03.167.088.272.15.272.084 0 .101.286.101 1.734 0 1.413-.018 1.733-.097 1.733-.075 0-.109.228-.148 1.003-.039.759-.076 1.015-.154 1.057-.081.043-.102.26-.102 1.07 0 .813-.019 1.016-.097 1.016-.077 0-.105.221-.133 1.027-.023.685-.062 1.043-.119 1.076-.056.033-.1.401-.129 1.081-.033.761-.068 1.031-.135 1.031s-.095.278-.114 1.124c-.015.721-.052 1.142-.102 1.173-.205.125-.189 1.646.017 1.646.069 0 .097.098.097.339 0 .257.026.34.107.34.075 0 .108.072.108.238 0 .193.027.238.143.238.095 0 .143.046.143.136 0 .076.047.136.107.136.059 0 .107.046.107.102 0 .056.048.102.107.102s.108.046.108.102c0 .057.063.102.143.102.095 0 .143.045.143.136 0 .075.044.136.099.136.055 0 .118.046.141.102.026.064.135.102.294.102.176 0 .252.03.252.102 0 .089.643.102 5.362.102 4.718 0 5.362-.013 5.362-.102 0-.056.048-.102.107-.102.085 0 .107-.098.107-.476s-.022-.476-.107-.476c-.093 0-.107-.238-.107-1.733 0-1.496.014-1.734.107-1.734.092 0 .107-.204.107-1.427 0-1.163.018-1.428.098-1.428.077 0 .105-.229.131-1.095.028-.931.051-1.105.152-1.159.104-.055.12-.209.12-1.182 0-.906.018-1.118.099-1.118.079 0 .104-.226.127-1.125.022-.867.051-1.139.128-1.184.077-.045.107-.321.132-1.186.026-.894.053-1.127.131-1.127.078 0 .098-.207.098-1.05 0-.916.015-1.06.12-1.115.109-.058.121-.227.117-1.61-.003-1.358-.018-1.553-.12-1.608-.097-.051-.117-.183-.117-.739s-.019-.676-.108-.676c-.08 0-.107-.083-.107-.337 0-.238-.033-.354-.115-.397-.069-.037-.129-.187-.152-.377-.024-.205-.072-.317-.135-.317-.069 0-.098-.092-.098-.305 0-.216-.03-.306-.1-.306-.056 0-.119-.102-.146-.238-.028-.143-.089-.238-.151-.238-.071 0-.104-.075-.104-.238 0-.166-.032-.238-.107-.238-.06 0-.107-.06-.107-.136 0-.09-.048-.136-.143-.136-.111 0-.143-.045-.143-.204 0-.136-.036-.204-.107-.204-.06 0-.108-.06-.108-.136 0-.075-.045-.136-.101-.136-.056 0-.123-.091-.149-.204-.026-.112-.093-.204-.149-.204-.055 0-.101-.06-.101-.135 0-.075-.045-.137-.099-.137-.054 0-.116-.06-.136-.135-.021-.075-.089-.136-.152-.136-.062 0-.114-.046-.114-.102a.105.105 0 0 0-.107-.102.105.105 0 0 1-.107-.102c0-.056-.051-.102-.114-.102s-.131-.061-.151-.136c-.021-.075-.082-.136-.137-.136a.101.101 0 0 1-.099-.102c0-.057-.063-.102-.142-.102-.08 0-.143-.045-.143-.102 0-.056-.049-.102-.108-.102s-.107-.06-.107-.136c0-.11-.048-.136-.25-.136-.203 0-.25-.026-.25-.136 0-.075-.045-.136-.1-.136-.055 0-.118-.046-.141-.102-.024-.06-.131-.102-.258-.102-.145 0-.216-.034-.216-.102 0-.056-.041-.102-.092-.102-.05 0-.146-.06-.213-.136a.47.47 0 0 0-.302-.136c-.112 0-.18-.038-.18-.101 0-.069-.071-.102-.214-.102-.135 0-.215-.035-.215-.095 0-.103-.212-.175-.518-.176-.127-.001-.197-.038-.197-.103 0-.077-.087-.102-.357-.102-.262 0-.358-.026-.358-.097 0-.067-.123-.112-.393-.144-.263-.032-.393-.078-.393-.141 0-.073-.138-.094-.608-.094-.492 0-.607-.02-.607-.102 0-.089-.294-.102-2.217-.102-1.922 0-2.216.013-2.216.102 0 .082-.115.102-.607.102-.478 0-.608.02-.608.096 0 .07-.134.11-.465.144-.324.033-.465.076-.465.142 0 .067-.1.094-.357.094-.27 0-.357.025-.357.102 0 .071-.077.102-.257.102-.197 0-.266.031-.295.136-.03.11-.097.136-.35.136-.231 0-.314.026-.314.102 0 .056-.063.101-.143.101-.078 0-.143.043-.143.095 0 .054-.107.113-.25.139-.15.027-.25.084-.25.143 0 .068-.079.1-.25.1-.169 0-.251.03-.251.096 0 .053-.093.116-.208.14-.115.024-.226.088-.248.141a.173.173 0 0 1-.149.098c-.06 0-.11.043-.11.094 0 .055-.107.114-.25.14-.15.026-.25.084-.25.143 0 .054-.048.099-.107.099s-.108.046-.108.102c0 .071-.075.102-.25.102-.202 0-.25.026-.25.136 0 .075-.048.136-.107.136a.105.105 0 0 0-.107.102c0 .056-.064.102-.143.102-.08 0-.143.045-.143.102 0 .056-.042.102-.092.102-.05 0-.146.06-.214.136a.425.425 0 0 1-.266.135c-.08 0-.143.046-.143.102 0 .057-.049.103-.108.103a.105.105 0 0 1-.107-.103c0-.056-.063-.102-.143-.102-.095 0-.143-.045-.143-.135 0-.076-.047-.136-.107-.136a.105.105 0 0 1-.107-.102c0-.056-.049-.102-.108-.102a.109.109 0 0 1-.107-.109c0-.06-.064-.124-.143-.144-.078-.02-.143-.077-.143-.13 0-.05-.048-.093-.107-.093a.108.108 0 0 1-.107-.108c0-.06-.065-.125-.143-.144-.079-.02-.143-.078-.143-.13 0-.052-.048-.094-.107-.094s-.108-.046-.108-.102c0-.056-.063-.102-.143-.102-.078 0-.143-.043-.143-.097 0-.053-.096-.116-.214-.14-.118-.025-.215-.089-.215-.142 0-.053-.064-.097-.143-.097-.078 0-.143-.044-.143-.099 0-.059-.1-.116-.25-.143-.143-.026-.25-.085-.25-.14 0-.051-.064-.094-.143-.094-.079 0-.143-.045-.143-.101 0-.068-.071-.102-.211-.102-.117 0-.239-.048-.274-.107-.034-.06-.197-.124-.361-.145-.185-.024-.298-.073-.298-.131 0-.067-.102-.093-.357-.093-.27 0-.358-.025-.358-.102 0-.062-.066-.102-.17-.102-.322 0-.616-.085-.616-.179 0-.072-.14-.093-.608-.093-.492 0-.608-.02-.608-.102 0-.089-.317-.102-2.43-.102-2.031 0-2.431.016-2.431.095Z" fill="#F8BE04"/><path fill-rule="evenodd" clip-rule="evenodd" d="M45.012 29.145c.175 0 .25-.03.25-.102 0-.09.449-.102 3.61-.102 3.162 0 3.61.013 3.61.102 0 .07.075.102.243.102.181 0 .25.034.279.136.02.075.089.136.151.136.097 0 .114.103.114.68 0 .524-.022.68-.096.68-.075 0-.106.248-.139 1.131-.03.826-.067 1.147-.136 1.187-.068.04-.1.309-.117.976-.018.711-.045.92-.119.92-.075 0-.1.242-.12 1.124-.016.785-.05 1.14-.11 1.175-.058.034-.103.409-.136 1.153-.037.824-.073 1.102-.14 1.102-.07 0-.098.256-.115 1.056-.015.672-.052 1.074-.102 1.105-.048.03-.098.469-.129 1.135-.038.842-.073 1.1-.153 1.142-.083.045-.104.255-.104 1.072 0 .813-.02 1.016-.097 1.016s-.105.22-.132 1.026c-.026.751-.06 1.041-.13 1.082-.07.042-.103.346-.127 1.183-.026.894-.053 1.127-.13 1.127-.059 0-.084.113-.094.51h-9.28c.014-.18.039-.238.079-.238.076 0 .105-.22.132-1.026.026-.78.059-1.04.135-1.085.077-.045.105-.296.123-1.081.018-.799.044-1.022.12-1.022.075 0 .1-.24.12-1.124.017-.816.048-1.14.114-1.178.063-.037.105-.356.136-1.051.035-.769.068-.998.142-.998.075 0 .096-.185.096-.86v-.859l-.588.047c-.331.026-.61.082-.64.129-.034.052-.304.09-.736.105-.492.017-.681.048-.681.11s-.18.097-.614.118c-.358.018-.635.064-.665.11-.064.099-1.04.184-1.388.122-.208-.037-.263-.083-.3-.248-.027-.11-.093-.201-.149-.201-.086 0-.102-.425-.102-2.787 0-2.432.014-2.787.108-2.787.075 0 .107-.072.107-.238 0-.193.027-.238.143-.238.08 0 .143-.045.143-.102 0-.056.041-.102.091-.102.05 0 .147-.061.214-.136.085-.094.21-.136.41-.136.194 0 .286-.03.286-.093 0-.058.113-.107.298-.131.164-.02.326-.086.36-.145a.257.257 0 0 1 .203-.107c.077 0 .14-.046.14-.102 0-.068.071-.102.214-.102.138 0 .215-.034.215-.096 0-.053.096-.117.214-.142.118-.024.215-.088.215-.14 0-.054.064-.098.143-.098.079 0 .143-.045.143-.102 0-.056.049-.102.109-.102s.127-.044.149-.097c.022-.054.133-.118.248-.142.115-.024.209-.087.209-.14 0-.053.064-.096.142-.096.096 0 .143-.046.143-.136 0-.076.048-.136.108-.136a.105.105 0 0 0 .107-.102c0-.057.063-.102.143-.102.08 0 .143-.045.143-.102 0-.056.051-.102.114-.102s.13-.061.151-.136c.02-.075.082-.136.136-.136a.098.098 0 0 0 .1-.097c0-.053.096-.116.214-.14.118-.026.214-.09.214-.142 0-.053.049-.097.108-.097a.108.108 0 0 0 .107-.108c0-.06.064-.125.143-.144.078-.02.143-.078.143-.13 0-.051.064-.094.143-.094.08 0 .143-.045.143-.102 0-.056.048-.102.107-.102.06 0 .107-.06.107-.136 0-.075.064-.19.143-.253.079-.064.143-.156.143-.203 0-.048.048-.087.107-.087.06 0 .108-.043.108-.094 0-.052.064-.11.143-.13.078-.02.143-.084.143-.144 0-.078.069-.108.25-.108ZM205.908 51c-.03-.168-.066-.239-.118-.239-.072 0-.1-.094-.1-.34 0-.256-.026-.34-.107-.34-.074 0-.107-.07-.107-.23 0-.172-.036-.238-.143-.265-.104-.026-.143-.093-.143-.246 0-.134-.036-.21-.1-.21-.056 0-.119-.102-.146-.238-.028-.143-.089-.238-.151-.238a.103.103 0 0 1-.104-.102.105.105 0 0 0-.107-.102c-.06 0-.107-.06-.107-.136 0-.075-.046-.136-.102-.136-.056 0-.122-.09-.147-.2-.035-.15-.099-.21-.256-.243-.116-.024-.211-.08-.211-.123-.002-.097-.312-.386-.415-.386-.04 0-.094-.09-.119-.199-.035-.15-.099-.21-.256-.243-.116-.024-.21-.088-.21-.14 0-.054-.048-.097-.107-.097s-.108-.046-.108-.102c0-.057-.063-.102-.143-.102-.078 0-.142-.044-.142-.097 0-.053-.097-.117-.215-.141-.118-.025-.214-.088-.214-.141 0-.054-.065-.097-.143-.097-.079 0-.143-.042-.143-.094 0-.055-.107-.114-.251-.14-.149-.026-.25-.084-.25-.143 0-.065-.074-.099-.214-.099-.136 0-.215-.035-.215-.094 0-.054-.105-.113-.243-.138-.134-.024-.262-.088-.284-.143-.023-.058-.132-.1-.257-.1-.145 0-.217-.034-.217-.103 0-.07-.075-.102-.25-.102-.171 0-.25-.03-.25-.099 0-.059-.101-.116-.25-.143-.144-.026-.251-.085-.251-.139 0-.068-.1-.094-.357-.094-.255 0-.358-.027-.358-.094 0-.06-.116-.105-.332-.128-.2-.022-.358-.08-.397-.145-.045-.077-.167-.11-.418-.11-.267 0-.354-.024-.354-.101 0-.077-.087-.102-.357-.102-.257 0-.358-.027-.358-.094 0-.114-.218-.176-.625-.177-.222 0-.304-.029-.304-.103s-.08-.102-.286-.102c-.195 0-.286-.03-.286-.093 0-.06-.125-.11-.358-.139-.244-.03-.357-.076-.357-.144 0-.069-.078-.1-.25-.1-.169 0-.25-.031-.25-.096 0-.053-.097-.117-.215-.142-.118-.024-.214-.088-.214-.141 0-.053-.065-.097-.143-.097-.112 0-.143-.045-.143-.204 0-.136-.036-.203-.108-.203-.082 0-.107-.087-.107-.374 0-.287.025-.374.107-.374.072 0 .108-.068.108-.204 0-.142.035-.204.114-.204.062 0 .13-.061.151-.136.026-.096.097-.136.243-.136.127 0 .207-.036.207-.093 0-.06.115-.106.325-.128.191-.02.363-.083.415-.152.077-.1.197-.113.857-.093.522.017.785.052.823.11.031.049.223.106.427.13.243.027.37.073.37.133 0 .066.103.093.357.093.258 0 .358.026.358.094 0 .054.106.114.25.14.15.026.25.084.25.143 0 .068.079.099.25.099.175 0 .25.03.25.102 0 .068.072.102.217.102.123 0 .234.042.256.098.022.053.134.117.248.14.115.025.209.088.209.14 0 .065.08.098.242.098.182 0 .251.033.279.136.021.074.089.136.151.136.063 0 .114.045.114.101 0 .072.076.102.251.102.166 0 .25.032.25.096 0 .066.132.11.426.142.525.058 1.004-.01 1.004-.142 0-.053.064-.096.143-.096.079 0 .143-.045.143-.102 0-.056.048-.102.107-.102s.107-.06.107-.136c0-.075.048-.136.107-.136s.108-.045.108-.101c0-.056.051-.102.113-.102.063 0 .131-.062.152-.136.02-.075.082-.136.136-.136.062 0 .099-.076.099-.204 0-.136.036-.204.107-.204.06 0 .107-.06.107-.136 0-.09.048-.136.143-.136.096 0 .143-.045.143-.136 0-.075.046-.136.102-.136.056 0 .123-.092.149-.204.025-.112.092-.204.148-.204.056 0 .102-.061.102-.136 0-.075.048-.136.107-.136a.105.105 0 0 0 .107-.102c0-.056.046-.102.102-.102.056 0 .122-.089.147-.198.025-.109.092-.215.149-.236a.165.165 0 0 0 .103-.141c0-.058.048-.104.107-.104a.108.108 0 0 0 .107-.109c0-.06.065-.124.143-.144.102-.025.143-.092.143-.231 0-.13.037-.196.107-.196.06 0 .108-.06.108-.136 0-.09.047-.136.143-.136.079 0 .143-.045.143-.102 0-.056.048-.102.107-.102.075 0 .107-.072.107-.238 0-.193.027-.238.143-.238.08 0 .143-.045.143-.102 0-.056.048-.102.107-.102.06 0 .108-.06.108-.136 0-.075.047-.136.107-.136.059 0 .107-.06.107-.136 0-.074.045-.136.099-.136.131 0 .185-.213.186-.73.001-.333-.022-.425-.106-.425a.105.105 0 0 1-.107-.102c0-.057-.064-.102-.143-.102-.096 0-.143-.045-.143-.136 0-.075-.045-.136-.1-.136-.055 0-.118-.046-.141-.102a.174.174 0 0 0-.15-.102c-.061 0-.11-.046-.11-.102 0-.071-.075-.102-.25-.102-.203 0-.25-.026-.25-.136 0-.106-.048-.136-.215-.136-.143 0-.214-.034-.214-.102 0-.056-.064-.102-.143-.102-.079 0-.143-.044-.143-.099 0-.059-.101-.116-.25-.143-.144-.026-.251-.085-.251-.14 0-.062-.084-.093-.25-.093-.168 0-.25-.032-.25-.097 0-.053-.094-.116-.209-.14-.114-.024-.226-.088-.248-.142-.022-.055-.133-.097-.256-.097-.145 0-.217-.034-.217-.102 0-.07-.074-.102-.241-.102-.182 0-.252-.034-.28-.136-.03-.111-.097-.136-.365-.136-.245 0-.329-.026-.329-.102 0-.074-.079-.102-.286-.102-.196 0-.286-.03-.286-.094 0-.066-.141-.109-.465-.142-.33-.033-.464-.075-.464-.143 0-.076-.131-.097-.608-.097-.464 0-.608-.022-.608-.092 0-.073-.284-.103-1.34-.142-.737-.026-1.351-.077-1.364-.111-.013-.035-.228-.063-.477-.063-.249 0-.463.028-.477.063-.013.034-.627.085-1.364.111-1.056.04-1.34.069-1.34.142 0 .069-.127.092-.501.092-.385 0-.5.022-.5.097 0 .068-.134.11-.465.143-.324.033-.465.076-.465.142 0 .069-.106.094-.393.094-.302 0-.393.024-.393.102 0 .066-.07.102-.199.102-.11 0-.253.06-.321.136-.079.088-.211.136-.373.136-.166 0-.251.032-.251.094 0 .054-.107.114-.25.14-.138.024-.25.072-.25.106s-.113.082-.251.106c-.143.026-.25.085-.25.14 0 .051-.064.093-.143.093-.079 0-.143.046-.143.102 0 .057-.063.102-.144.102a.43.43 0 0 0-.266.136c-.067.075-.163.136-.213.136a.093.093 0 0 0-.092.095c0 .054-.107.113-.25.139-.15.026-.25.084-.25.143 0 .055-.048.1-.107.1s-.108.045-.108.101c0 .057-.063.102-.143.102-.079 0-.143.045-.143.102a.105.105 0 0 1-.107.102c-.059 0-.107.06-.107.136 0 .11-.048.136-.25.136-.175 0-.251.03-.251.102a.105.105 0 0 1-.107.102c-.059 0-.107.06-.107.136 0 .09-.048.136-.143.136-.079 0-.143.045-.143.102a.105.105 0 0 1-.107.102c-.06 0-.107.06-.107.136 0 .075-.048.136-.108.136-.059 0-.107.039-.107.086 0 .048-.064.14-.143.204-.079.064-.143.178-.143.253 0 .076-.047.136-.107.136-.059 0-.107.043-.107.094 0 .052-.065.11-.143.13-.104.026-.143.093-.143.246 0 .141-.035.21-.108.21-.059 0-.107.06-.107.136 0 .075-.047.136-.104.136-.062 0-.123.096-.151.238-.027.136-.089.238-.146.238-.07 0-.099.09-.099.306 0 .215-.029.306-.1.306-.056 0-.119.1-.144.23-.026.128-.093.25-.151.27-.078.03-.106.155-.106.483 0 .327-.025.444-.096.444-.072 0-.108.178-.141.696-.025.383-.078.707-.118.72-.044.014-.074.294-.074.691 0 .397.03.678.074.692.04.013.093.337.118.72.033.517.069.696.141.696.068 0 .096.1.096.34 0 .242.028.34.098.34.064 0 .115.119.146.34.032.232.08.34.152.34s.105.073.105.237c0 .158.033.238.099.238.057 0 .119.102.146.238.028.142.089.238.151.238.057 0 .104.061.104.136 0 .075.048.136.107.136.072 0 .108.068.108.204 0 .158.031.204.143.204.095 0 .143.045.143.136 0 .075.047.136.107.136.059 0 .107.045.107.102 0 .056.048.101.107.101s.108.05.108.109c0 .06.064.124.143.144.078.02.143.078.143.13 0 .05.048.093.107.093s.107.043.107.094c0 .052.064.11.143.13.079.02.143.084.143.144 0 .06.048.108.107.108s.107.046.107.102c0 .057.064.102.143.102.08 0 .143.045.143.102 0 .056.049.102.108.102s.107.06.107.136c0 .11.048.136.25.136.175 0 .25.03.25.102 0 .056.049.102.108.102s.107.044.107.099c0 .059.1.117.25.143.143.026.25.085.25.14 0 .051.065.094.143.094.079 0 .143.044.143.098 0 .06.101.117.25.144.144.026.251.085.251.139 0 .06.079.094.214.094.141 0 .215.035.215.1 0 .068.112.114.357.145.232.03.358.078.358.138 0 .061.086.093.25.093s.25.032.25.093c0 .06.117.106.333.13.039.003.077.01.113.016h16.644Zm-31.775 0c.018-.17.03-.449.041-.888.022-.867.051-1.14.128-1.184.077-.045.107-.321.132-1.186.026-.894.053-1.127.131-1.127.078 0 .098-.207.098-1.05 0-.916.015-1.059.12-1.115.109-.058.121-.227.117-1.61-.003-1.358-.018-1.553-.12-1.608-.097-.051-.117-.183-.117-.739 0-.555-.02-.676-.108-.676-.081 0-.107-.083-.107-.336 0-.239-.033-.355-.115-.398-.069-.037-.129-.187-.152-.377-.024-.205-.072-.316-.135-.316-.069 0-.098-.093-.098-.306 0-.216-.03-.306-.1-.306-.056 0-.119-.102-.146-.238-.028-.142-.089-.238-.151-.238-.071 0-.104-.075-.104-.238 0-.166-.032-.238-.107-.238-.06 0-.107-.06-.107-.136 0-.09-.048-.136-.143-.136-.111 0-.143-.045-.143-.204 0-.136-.036-.204-.107-.204-.06 0-.108-.06-.108-.136 0-.074-.045-.136-.101-.136-.056 0-.123-.091-.149-.203-.026-.113-.093-.204-.149-.204-.055 0-.101-.061-.101-.136 0-.075-.045-.136-.099-.136-.054 0-.116-.061-.136-.136-.021-.075-.089-.136-.152-.136-.062 0-.114-.046-.114-.102a.105.105 0 0 0-.107-.102.105.105 0 0 1-.107-.102c0-.056-.051-.102-.114-.102s-.131-.061-.151-.136c-.021-.075-.082-.136-.137-.136a.101.101 0 0 1-.099-.102c0-.056-.063-.102-.142-.102-.08 0-.143-.045-.143-.102 0-.056-.049-.102-.108-.102s-.107-.06-.107-.136c0-.11-.048-.136-.25-.136-.203 0-.25-.026-.25-.136 0-.074-.045-.136-.1-.136-.055 0-.118-.045-.141-.102-.024-.06-.131-.102-.258-.102-.145 0-.216-.033-.216-.102 0-.056-.041-.102-.092-.102-.05 0-.146-.06-.213-.135a.47.47 0 0 0-.302-.136c-.112 0-.18-.039-.18-.102 0-.068-.071-.102-.214-.102-.135 0-.215-.035-.215-.094 0-.103-.212-.176-.518-.177-.127 0-.197-.038-.197-.103 0-.077-.087-.102-.357-.102-.262 0-.358-.026-.358-.097 0-.067-.123-.112-.393-.144-.263-.031-.393-.078-.393-.14 0-.074-.138-.095-.608-.095-.492 0-.607-.02-.607-.102 0-.088-.294-.102-2.217-.102-1.922 0-2.216.014-2.216.102 0 .083-.115.102-.607.102-.478 0-.608.02-.608.097 0 .068-.134.11-.465.143-.324.033-.465.076-.465.142 0 .067-.1.094-.357.094-.27 0-.357.025-.357.102 0 .072-.077.102-.257.102-.197 0-.266.032-.295.136-.03.11-.097.136-.35.136-.231 0-.314.027-.314.102 0 .056-.063.102-.143.102-.078 0-.143.042-.143.094 0 .054-.107.113-.25.14-.15.026-.25.083-.25.143 0 .067-.079.099-.25.099-.169 0-.251.031-.251.096 0 .053-.093.116-.208.14-.115.024-.226.088-.248.142a.173.173 0 0 1-.149.097c-.06 0-.11.043-.11.095 0 .054-.107.113-.25.139-.15.026-.25.084-.25.143 0 .055-.048.1-.107.1s-.108.045-.108.101c0 .071-.075.102-.25.102-.202 0-.25.026-.25.136 0 .076-.048.136-.107.136a.105.105 0 0 0-.107.102c0 .057-.064.102-.143.102-.08 0-.143.045-.143.102 0 .056-.042.102-.092.102-.05 0-.146.061-.214.136a.425.425 0 0 1-.266.136c-.08 0-.143.045-.143.102 0 .056-.049.102-.108.102a.105.105 0 0 1-.107-.102c0-.057-.063-.102-.143-.102-.095 0-.143-.046-.143-.136 0-.076-.047-.136-.107-.136a.105.105 0 0 1-.107-.102c0-.056-.049-.102-.108-.102a.109.109 0 0 1-.107-.108c0-.06-.064-.125-.143-.144-.078-.02-.143-.078-.143-.13 0-.052-.048-.094-.107-.094a.108.108 0 0 1-.107-.108c0-.06-.065-.125-.143-.144-.079-.02-.143-.078-.143-.13 0-.051-.048-.094-.107-.094s-.108-.046-.108-.102c0-.056-.063-.102-.143-.102-.078 0-.143-.043-.143-.096 0-.053-.096-.117-.214-.142-.118-.024-.215-.088-.215-.14 0-.054-.064-.098-.143-.098-.078 0-.143-.044-.143-.098 0-.06-.1-.117-.25-.144-.143-.026-.25-.085-.25-.139 0-.052-.064-.094-.143-.094-.079 0-.143-.046-.143-.102 0-.068-.071-.102-.211-.102-.117 0-.239-.048-.274-.107-.034-.059-.197-.124-.361-.145-.185-.024-.298-.073-.298-.131 0-.066-.102-.093-.357-.093-.27 0-.358-.025-.358-.102 0-.062-.066-.102-.17-.102-.322 0-.616-.085-.616-.179 0-.072-.14-.093-.608-.093-.492 0-.608-.02-.608-.102 0-.089-.317-.102-2.43-.102-2.031 0-2.431.016-2.431.095 0 .071-.143.1-.575.12-.362.015-.596.056-.631.11-.031.048-.222.105-.426.128-.243.028-.37.074-.37.134 0 .066-.103.093-.357.093-.27 0-.358.025-.358.102 0 .071-.075.102-.25.102-.202 0-.25.026-.25.136 0 .118-.048.136-.358.136-.27 0-.357.025-.357.102 0 .056-.064.102-.143.102-.079 0-.143.044-.143.099 0 .059-.1.116-.25.143-.144.026-.25.085-.25.14 0 .059-.08.093-.215.093s-.214.035-.214.095c0 .054-.107.113-.251.139-.149.027-.25.084-.25.143 0 .055-.064.1-.143.1-.078 0-.143.043-.143.096 0 .053-.096.117-.214.141-.118.025-.215.088-.215.142 0 .065-.081.096-.25.096-.175 0-.25-.03-.25-.102a.105.105 0 0 0-.107-.102c-.06 0-.108-.06-.108-.136 0-.09-.047-.136-.143-.136-.115 0-.143-.045-.143-.238 0-.156-.033-.238-.098-.238-.072 0-.107-.144-.131-.55-.019-.302-.065-.57-.104-.594a.387.387 0 0 1-.116-.164c-.044-.112-.318-.119-4.392-.118-2.39 0-4.418.02-4.506.042-.089.022-.161.083-.161.135 0 .052-.064.094-.143.094-.093 0-.143.045-.143.13 0 .072-.04.143-.089.159-.064.02-.097.284-.113.923-.019.718-.044.895-.125.895-.078 0-.103.114-.106.493-.009 1.061-.076 1.715-.18 1.77-.081.044-.102.267-.102 1.105 0 .889-.016 1.05-.107 1.05s-.107.174-.107 1.156c0 .93-.019 1.156-.098 1.156-.127 0-.187.484-.188 1.512 0 .665-.018.799-.108.799-.091 0-.107.174-.107 1.156 0 .981-.016 1.155-.107 1.155-.086 0-.107.1-.108.493-.001.907-.083 1.614-.189 1.614-.077 0-.096.23-.096 1.156 0 .923-.02 1.156-.097 1.156-.075 0-.105.248-.138 1.132l-.002.058h12.71l.002-.035c.007-.093.017-.33.024-.527.009-.267.039-.357.119-.357.091 0 .107-.173.107-1.155 0-.934.019-1.156.098-1.156.078 0 .105-.237.13-1.16.021-.743.06-1.178.111-1.208.043-.025.101-.13.128-.232.027-.103.094-.187.149-.187.054 0 .099-.06.099-.136 0-.09.048-.136.144-.136a.425.425 0 0 0 .266-.136c.067-.074.163-.136.214-.136.05 0 .091-.045.091-.102 0-.056.064-.101.143-.101.079 0 .143-.044.143-.097 0-.053.094-.116.209-.14.114-.024.226-.088.248-.141a.17.17 0 0 1 .149-.098c.06 0 .109-.046.109-.102 0-.072.075-.102.25-.102.169 0 .25-.032.25-.097 0-.068.135-.11.465-.144.324-.033.465-.075.465-.14 0-.077.212-.095 1.108-.095.898 0 1.108.018 1.108.094 0 .054.105.114.243.138.134.024.262.089.284.144.023.057.132.1.257.1.145 0 .217.034.217.102 0 .056.048.102.107.102s.107.049.107.108c0 .06.065.124.143.144.08.02.143.093.143.163s.049.129.108.129c.079 0 .107.079.107.305 0 .215.029.306.098.306.147 0 .188.317.188 1.46 0 1.54-.072 2.483-.19 2.483-.076 0-.096.215-.096 1.054 0 .837-.02 1.053-.096 1.053-.016 0-.029.01-.041.035h12.862v-.137c0-.844.02-1.053.098-1.053.077 0 .105-.221.132-1.027.025-.747.06-1.04.129-1.081.07-.041.103-.345.128-1.15.026-.864.053-1.093.131-1.093.066 0 .097-.087.097-.272 0-.196.03-.272.108-.272a.105.105 0 0 0 .107-.102c0-.056.063-.102.143-.102.078 0 .143-.042.143-.094 0-.051.064-.11.143-.13.078-.019.143-.084.143-.143 0-.075.066-.108.214-.108.143 0 .215-.034.215-.102 0-.056.049-.102.109-.102s.127-.044.149-.098c.022-.054.133-.118.248-.142.115-.023.209-.087.209-.14 0-.064.081-.096.246-.096.157 0 .272-.042.314-.114.048-.081.193-.123.504-.144.309-.022.437-.058.437-.124 0-.075.198-.094 1.001-.094.8 0 1.001.019 1.001.093 0 .06.125.11.357.139.245.03.358.076.358.144 0 .066.073.1.214.1.135 0 .215.035.215.094 0 .052.064.11.143.13.078.019.143.084.143.143 0 .06.048.109.107.109.071 0 .107.068.107.204 0 .13.037.204.101.204.062 0 .12.104.149.271.03.168.088.272.15.272.084 0 .101.286.101 1.734 0 1.413-.018 1.733-.097 1.733-.075 0-.109.228-.148 1.003-.039.76-.076 1.016-.154 1.057-.057.03-.084.146-.095.49h12.904Zm-61.764 0c.019-.166.024-.453.024-.956 0-.894.019-1.118.097-1.118.075 0 .105-.244.136-1.13.027-.801.065-1.146.129-1.184.063-.037.1-.364.124-1.113.026-.835.054-1.06.131-1.06.08 0 .098-.292.098-1.597 0-1.315-.018-1.597-.099-1.597-.076 0-.106-.16-.128-.684-.02-.488-.057-.7-.128-.742-.061-.036-.112-.22-.131-.472-.022-.292-.061-.414-.13-.414-.068 0-.099-.086-.099-.272 0-.186-.031-.271-.099-.271-.103 0-.184-.2-.186-.46-.001-.09-.045-.152-.108-.152-.075 0-.107-.072-.107-.238 0-.158-.034-.238-.1-.238-.057 0-.119-.102-.146-.238-.028-.142-.089-.238-.151-.238-.057 0-.104-.061-.104-.136 0-.075-.048-.136-.107-.136-.072 0-.107-.068-.107-.21 0-.153-.039-.22-.143-.246-.079-.02-.143-.078-.143-.13 0-.051-.049-.094-.108-.094-.071 0-.107-.068-.107-.203 0-.142-.035-.204-.114-.204-.062 0-.13-.061-.151-.136-.021-.075-.082-.136-.136-.136-.055 0-.099-.061-.099-.136 0-.076-.048-.136-.107-.136s-.108-.046-.108-.102c0-.057-.063-.102-.143-.102-.079 0-.143-.045-.143-.102a.105.105 0 0 0-.107-.102c-.059 0-.107-.06-.107-.136 0-.09-.048-.136-.143-.136-.08 0-.143-.045-.143-.102a.105.105 0 0 0-.107-.102c-.059 0-.108-.043-.108-.096 0-.053-.096-.117-.214-.142-.118-.024-.215-.088-.215-.141 0-.053-.06-.097-.134-.097a.19.19 0 0 1-.172-.136c-.021-.074-.089-.136-.152-.136-.062 0-.113-.045-.113-.102 0-.068-.072-.102-.215-.102-.143 0-.214-.034-.214-.102 0-.056-.064-.102-.143-.102-.079 0-.143-.044-.143-.098 0-.06-.101-.117-.251-.144-.143-.025-.25-.085-.25-.139 0-.063-.084-.094-.25-.094-.165 0-.25-.032-.25-.094 0-.103-.212-.176-.519-.177-.126 0-.196-.038-.196-.103 0-.071-.076-.102-.25-.102-.166 0-.251-.032-.251-.094 0-.066-.139-.108-.459-.141-.296-.03-.473-.081-.498-.144-.029-.073-.182-.097-.613-.097-.463 0-.574-.02-.574-.102 0-.088-.294-.102-2.217-.102-1.922 0-2.216.014-2.216.102 0 .083-.115.102-.608.102-.47 0-.607.021-.607.094 0 .066-.141.108-.465.141-.33.034-.465.076-.465.144 0 .072-.1.097-.393.097-.302 0-.393.024-.393.102 0 .069-.072.102-.221.102-.161 0-.232.037-.259.136-.03.112-.097.136-.386.136-.263 0-.35.025-.35.102 0 .056-.063.102-.143.102a.426.426 0 0 0-.266.136c-.068.074-.18.136-.25.136s-.127.045-.127.102c0 .068-.071.102-.214.102-.136 0-.215.034-.215.094 0 .054-.107.113-.25.139-.15.027-.25.084-.25.143 0 .055-.065.1-.143.1-.079 0-.143.043-.143.096 0 .053-.097.117-.215.141-.118.025-.214.088-.214.142 0 .053-.064.096-.143.096-.08 0-.143.045-.143.102 0 .067-.07.102-.206.102-.146 0-.217.04-.244.136-.02.075-.088.136-.151.136s-.114.046-.114.102a.105.105 0 0 1-.107.102c-.06 0-.108.042-.108.094 0 .054-.106.114-.25.14-.15.026-.25.084-.25.143 0 .054-.048.099-.107.099a.105.105 0 0 0-.108.102c0 .056-.063.102-.142.102-.08 0-.143-.046-.143-.102a.105.105 0 0 0-.108-.102c-.06 0-.107-.06-.107-.136 0-.076-.048-.136-.107-.136a.105.105 0 0 1-.107-.102c0-.057-.064-.102-.143-.102-.096 0-.143-.045-.143-.136 0-.076-.048-.136-.108-.136a.105.105 0 0 1-.107-.102c0-.057-.063-.102-.143-.102-.095 0-.143-.045-.143-.136 0-.075-.047-.136-.107-.136a.105.105 0 0 1-.107-.102c0-.056-.064-.102-.143-.102-.08 0-.143-.045-.143-.102a.105.105 0 0 0-.108-.102c-.058 0-.107-.044-.107-.099 0-.059-.1-.116-.25-.143-.143-.026-.25-.085-.25-.14 0-.051-.064-.093-.143-.093-.079 0-.143-.044-.143-.097 0-.053-.097-.117-.215-.141-.118-.025-.214-.089-.214-.142 0-.053-.064-.096-.143-.096-.08 0-.143-.046-.143-.102 0-.072-.076-.102-.25-.102-.166 0-.25-.032-.25-.094 0-.103-.213-.176-.519-.177-.126 0-.196-.038-.196-.103 0-.077-.088-.102-.358-.102s-.357-.025-.357-.102c0-.062-.067-.102-.17-.102-.322 0-.617-.085-.617-.179 0-.072-.14-.093-.607-.093-.493 0-.608-.02-.608-.102 0-.088-.306-.102-2.324-.102-2.017 0-2.323.014-2.323.102 0 .083-.115.102-.603.102-.448 0-.63.027-.713.105-.06.058-.272.123-.47.145-.234.027-.359.073-.359.133 0 .066-.103.093-.357.093-.27 0-.358.025-.358.102 0 .07-.074.102-.242.102-.181 0-.25.034-.279.136-.027.099-.097.136-.258.136-.14 0-.222.034-.222.093 0 .06-.117.105-.332.129-.2.021-.358.079-.397.144-.035.06-.11.11-.168.11a.103.103 0 0 0-.103.102c0 .07-.076.102-.25.102-.17 0-.251.031-.251.096 0 .053-.097.117-.215.141-.117.025-.214.089-.214.142 0 .053-.064.096-.143.096-.079 0-.143.044-.143.097 0 .053-.094.116-.208.14-.115.024-.227.088-.248.141-.094.231-.754-.024-.758-.293 0-.046-.05-.085-.108-.085-.075 0-.108-.072-.108-.238 0-.156-.033-.238-.098-.238-.118 0-.188-.293-.188-.79 0-.28-.025-.365-.107-.365-.06 0-.107-.06-.107-.136 0-.134-.048-.136-4.317-.136-2.373 0-4.416.02-4.54.043-.122.023-.223.084-.223.135 0 .052-.048.094-.107.094-.071 0-.107.068-.107.204 0 .126-.037.204-.097.204-.109 0-.19.54-.19 1.267 0 .339-.022.432-.106.432-.091 0-.108.163-.108 1.054s-.016 1.053-.107 1.053c-.09 0-.107.17-.107 1.119 0 .943-.018 1.127-.112 1.177-.091.049-.12.265-.154 1.193-.033.885-.063 1.134-.138 1.134-.077 0-.096.232-.096 1.155 0 .982-.017 1.156-.108 1.156-.086 0-.108.105-.111.527-.007.884-.074 1.542-.162 1.594-.057.033-.091.406-.107 1.173-.017.868-.044 1.124-.116 1.124-.071 0-.1.263-.125 1.128-.025.847-.057 1.14-.13 1.184-.072.042-.104.336-.129 1.184V51h12.714c.005-.655.028-.782.105-.782.087 0 .108-.114.112-.595.008-1.152.072-1.815.18-1.873.082-.044.102-.28.102-1.207 0-.978.016-1.152.107-1.152.06 0 .107-.06.107-.136 0-.076.064-.19.143-.254.079-.063.143-.155.143-.203 0-.047.065-.087.144-.087a.427.427 0 0 0 .266-.136c.067-.074.163-.136.214-.136.05 0 .091-.045.091-.102 0-.056.048-.101.107-.101.06 0 .108-.043.108-.095 0-.054.106-.113.25-.139.15-.027.25-.084.25-.143 0-.055.064-.1.143-.1.08 0 .143-.045.143-.101 0-.072.075-.102.25-.102.169 0 .25-.032.25-.097 0-.068.135-.11.465-.144.324-.033.465-.075.465-.14 0-.077.212-.095 1.108-.095.898 0 1.108.018 1.108.094 0 .054.107.114.25.14.15.026.25.084.25.143 0 .065.075.099.215.099.143 0 .214.034.214.102 0 .056.064.102.143.102.096 0 .143.045.143.136 0 .075.048.136.108.136.058 0 .107.044.107.098 0 .054.05.126.112.159s.13.187.153.343c.024.176.077.283.137.283.08 0 .098.349.098 1.972 0 1.62-.017 1.971-.097 1.971-.077 0-.105.22-.133 1.026-.025.751-.06 1.041-.129 1.082a.078.078 0 0 0-.028.034h12.834c.022-.694.094-1.19.182-1.19.077 0 .097-.214.097-1.054 0-.84.02-1.054.096-1.054s.106-.24.137-1.096c.022-.613.072-1.116.111-1.14.04-.022.094-.156.122-.296.03-.149.091-.255.15-.255a.1.1 0 0 0 .099-.102c0-.056.063-.102.143-.102.08 0 .143-.045.143-.102 0-.056.048-.102.107-.102.06 0 .107-.06.107-.136 0-.11.048-.135.25-.135.175 0 .25-.031.25-.102 0-.056.049-.102.108-.102s.107-.045.107-.1c0-.058.1-.116.25-.143.144-.025.25-.085.25-.139 0-.062.085-.094.25-.094.165 0 .251-.032.251-.094 0-.1.3-.178.688-.178.167 0 .241-.032.241-.102 0-.086.16-.102 1.001-.102.842 0 1.001.016 1.001.102 0 .066.07.102.197.103.306.001.518.074.518.177 0 .062.085.094.25.094.175 0 .25.03.25.102 0 .056.049.102.108.102.06 0 .107.06.107.136 0 .075.046.136.102.136.055 0 .122.091.148.204.026.112.093.204.149.204.07 0 .102.082.102.271 0 .185.03.272.097.272.127 0 .188.434.188 1.325 0 1.22-.081 2.142-.19 2.142-.076 0-.096.21-.096 1.02 0 .816-.02 1.02-.097 1.02-.057 0-.087.12-.11.51h12.909ZM45.012 55.248c.175 0 .25-.03.25-.102 0-.09.449-.102 3.61-.102 3.162 0 3.61.013 3.61.102 0 .07.075.102.243.102.181 0 .25.034.279.136.02.075.089.136.151.136.097 0 .114.103.114.68 0 .524-.022.68-.096.68-.075 0-.106.248-.139 1.131-.03.826-.067 1.147-.136 1.188-.068.04-.1.308-.117.975-.018.711-.045.92-.119.92-.075 0-.1.243-.12 1.124-.016.785-.05 1.14-.11 1.175-.058.034-.103.41-.136 1.153-.037.824-.073 1.102-.14 1.102-.07 0-.098.257-.115 1.057-.015.672-.052 1.074-.102 1.104-.048.03-.098.47-.129 1.136-.038.841-.073 1.099-.153 1.142-.083.044-.104.254-.104 1.071 0 .813-.02 1.016-.097 1.016s-.105.221-.132 1.026c-.026.751-.06 1.042-.13 1.082-.07.042-.103.347-.127 1.184-.026.894-.053 1.127-.13 1.127-.053 0-.08.092-.09.407h-9.273c.015-.1.037-.135.068-.135.076 0 .105-.221.132-1.027.026-.78.059-1.04.135-1.085.077-.045.105-.295.123-1.08.018-.8.044-1.023.12-1.023.075 0 .1-.24.12-1.124.017-.816.048-1.139.114-1.178.063-.037.105-.356.136-1.05.035-.77.068-.998.142-.998.075 0 .096-.185.096-.86v-.86l-.588.047c-.331.026-.61.083-.64.129-.034.052-.304.09-.736.106-.492.017-.681.047-.681.11 0 .061-.18.096-.614.118-.358.017-.635.063-.665.11-.064.098-1.04.183-1.388.121-.208-.037-.263-.082-.3-.247-.027-.111-.093-.202-.149-.202-.086 0-.102-.424-.102-2.787 0-2.432.014-2.787.108-2.787.075 0 .107-.072.107-.238 0-.193.027-.238.143-.238.08 0 .143-.045.143-.102 0-.056.041-.102.091-.102.05 0 .147-.06.214-.136.085-.094.21-.136.41-.136.194 0 .286-.03.286-.093 0-.057.113-.107.298-.13.164-.022.326-.087.36-.146a.257.257 0 0 1 .203-.106c.077 0 .14-.046.14-.102 0-.068.071-.102.214-.102.138 0 .215-.035.215-.097 0-.053.096-.117.214-.141.118-.025.215-.089.215-.142 0-.053.064-.096.143-.096.079 0 .143-.046.143-.102 0-.056.049-.102.109-.102s.127-.044.149-.098c.022-.054.133-.117.248-.141.115-.024.209-.087.209-.14 0-.054.064-.097.142-.097.096 0 .143-.045.143-.136 0-.075.048-.136.108-.136a.105.105 0 0 0 .107-.102c0-.056.063-.102.143-.102.08 0 .143-.045.143-.102 0-.056.051-.102.114-.102s.13-.061.151-.136c.02-.075.082-.136.136-.136a.098.098 0 0 0 .1-.096c0-.053.096-.117.214-.142.118-.024.214-.088.214-.14 0-.054.049-.097.108-.097a.108.108 0 0 0 .107-.109c0-.06.064-.124.143-.144.078-.02.143-.078.143-.13 0-.051.064-.093.143-.093.08 0 .143-.046.143-.102 0-.056.048-.102.107-.102.06 0 .107-.06.107-.137 0-.075.064-.189.143-.253.079-.064.143-.155.143-.203 0-.048.048-.087.107-.087.06 0 .108-.042.108-.094s.064-.11.143-.13c.078-.02.143-.084.143-.144 0-.078.069-.108.25-.108ZM205.886 77c-.026-.094-.057-.135-.096-.135-.072 0-.1-.094-.1-.34 0-.257-.026-.34-.107-.34-.074 0-.107-.071-.107-.23 0-.173-.036-.239-.143-.266-.104-.026-.143-.092-.143-.246 0-.134-.036-.21-.1-.21-.056 0-.119-.102-.146-.238-.028-.142-.089-.238-.151-.238a.103.103 0 0 1-.104-.102.105.105 0 0 0-.107-.102c-.06 0-.107-.06-.107-.136 0-.074-.046-.136-.102-.136-.056 0-.122-.09-.147-.2-.035-.149-.099-.21-.256-.242-.116-.025-.211-.08-.211-.124-.002-.096-.312-.385-.415-.385-.04 0-.094-.09-.119-.2-.035-.15-.099-.21-.256-.243-.116-.024-.21-.087-.21-.14 0-.053-.048-.097-.107-.097s-.108-.046-.108-.102c0-.057-.063-.102-.143-.102-.078 0-.142-.043-.142-.096 0-.054-.097-.117-.215-.142-.118-.024-.214-.088-.214-.141 0-.053-.065-.097-.143-.097-.079 0-.143-.042-.143-.094 0-.054-.107-.114-.251-.14-.149-.026-.25-.084-.25-.143 0-.064-.074-.099-.214-.099-.136 0-.215-.034-.215-.094 0-.053-.105-.113-.243-.138-.134-.024-.262-.088-.284-.143-.023-.058-.132-.1-.257-.1-.145 0-.217-.034-.217-.102 0-.072-.075-.102-.25-.102-.171 0-.25-.031-.25-.1 0-.058-.101-.116-.25-.143-.144-.025-.251-.085-.251-.139 0-.068-.1-.094-.357-.094-.255 0-.358-.027-.358-.093 0-.06-.116-.106-.332-.129-.2-.022-.358-.08-.397-.145-.045-.077-.167-.109-.418-.109-.267 0-.354-.025-.354-.102 0-.077-.087-.102-.357-.102-.257 0-.358-.026-.358-.094 0-.114-.218-.176-.625-.177-.222 0-.304-.028-.304-.103 0-.073-.08-.102-.286-.102-.195 0-.286-.03-.286-.093 0-.06-.125-.109-.358-.138-.244-.031-.357-.077-.357-.145 0-.069-.078-.1-.25-.1-.169 0-.25-.031-.25-.096 0-.053-.097-.117-.215-.142-.118-.024-.214-.088-.214-.14 0-.054-.065-.097-.143-.097-.112 0-.143-.046-.143-.204 0-.136-.036-.204-.108-.204-.082 0-.107-.087-.107-.374 0-.287.025-.374.107-.374.072 0 .108-.068.108-.204 0-.141.035-.204.114-.204.062 0 .13-.061.151-.136.026-.096.097-.136.243-.136.127 0 .207-.036.207-.093 0-.06.115-.105.325-.128.191-.02.363-.083.415-.151.077-.1.197-.114.857-.093.522.016.785.051.823.11.031.048.223.106.427.129.243.027.37.073.37.134 0 .065.103.092.357.092.258 0 .358.027.358.095 0 .054.106.113.25.139.15.026.25.084.25.143 0 .068.079.1.25.1.175 0 .25.03.25.101 0 .068.072.102.217.102.123 0 .234.043.256.098.022.054.134.117.248.141.115.024.209.087.209.14 0 .065.08.097.242.097.182 0 .251.034.279.136.021.075.089.136.151.136.063 0 .114.046.114.102 0 .07.076.102.251.102.166 0 .25.031.25.095 0 .066.132.11.426.142.525.058 1.004-.01 1.004-.141 0-.053.064-.096.143-.096.079 0 .143-.046.143-.102 0-.056.048-.102.107-.102s.107-.06.107-.136c0-.076.048-.136.107-.136s.108-.046.108-.102c0-.056.051-.102.113-.102.063 0 .131-.061.152-.136.02-.075.082-.136.136-.136.062 0 .099-.076.099-.204 0-.136.036-.204.107-.204.06 0 .107-.06.107-.136 0-.09.048-.136.143-.136.096 0 .143-.045.143-.136 0-.075.046-.136.102-.136.056 0 .123-.091.149-.204.025-.112.092-.204.148-.204.056 0 .102-.06.102-.135 0-.076.048-.136.107-.136a.105.105 0 0 0 .107-.102c0-.056.046-.102.102-.102.056 0 .122-.09.147-.199.025-.109.092-.215.149-.235a.166.166 0 0 0 .103-.142c0-.057.048-.104.107-.104a.108.108 0 0 0 .107-.109c0-.059.065-.124.143-.143.102-.025.143-.093.143-.232 0-.129.037-.196.107-.196.06 0 .108-.06.108-.136 0-.09.047-.136.143-.136.079 0 .143-.045.143-.102 0-.056.048-.102.107-.102.075 0 .107-.072.107-.238 0-.192.027-.238.143-.238.08 0 .143-.045.143-.102 0-.056.048-.102.107-.102.06 0 .108-.06.108-.135 0-.076.047-.136.107-.136.059 0 .107-.06.107-.136 0-.075.045-.136.099-.136.131 0 .185-.213.186-.731.001-.333-.022-.425-.106-.425a.105.105 0 0 1-.107-.102c0-.056-.064-.102-.143-.102-.096 0-.143-.045-.143-.136 0-.075-.045-.136-.1-.136-.055 0-.118-.046-.141-.102a.175.175 0 0 0-.15-.102c-.061 0-.11-.045-.11-.102 0-.07-.075-.102-.25-.102-.203 0-.25-.026-.25-.136 0-.105-.048-.136-.215-.136-.143 0-.214-.033-.214-.101 0-.057-.064-.102-.143-.102-.079 0-.143-.045-.143-.1 0-.059-.101-.116-.25-.143-.144-.025-.251-.085-.251-.139 0-.062-.084-.094-.25-.094-.168 0-.25-.032-.25-.097 0-.053-.094-.116-.209-.14-.114-.024-.226-.087-.248-.141-.022-.056-.133-.098-.256-.098-.145 0-.217-.034-.217-.102 0-.07-.074-.102-.241-.102-.182 0-.252-.034-.28-.136-.03-.111-.097-.136-.365-.136-.245 0-.329-.026-.329-.102 0-.074-.079-.102-.286-.102-.196 0-.286-.03-.286-.094 0-.066-.141-.108-.465-.141-.33-.034-.464-.075-.464-.144 0-.076-.131-.097-.608-.097-.464 0-.608-.021-.608-.092 0-.073-.284-.103-1.34-.141-.737-.027-1.351-.077-1.364-.112-.013-.034-.228-.063-.477-.063-.249 0-.463.029-.477.063-.013.035-.627.085-1.364.112-1.056.038-1.34.068-1.34.141 0 .069-.127.092-.501.092-.385 0-.5.023-.5.097 0 .069-.134.11-.465.144-.324.033-.465.076-.465.141 0 .069-.106.094-.393.094-.302 0-.393.024-.393.102 0 .066-.07.102-.199.102-.11 0-.253.06-.321.136-.079.088-.211.136-.373.136-.166 0-.251.032-.251.094 0 .054-.107.114-.25.14-.138.024-.25.072-.25.106s-.113.082-.251.106c-.143.026-.25.085-.25.14 0 .051-.064.094-.143.094-.079 0-.143.045-.143.102 0 .056-.063.102-.144.102a.43.43 0 0 0-.266.136c-.067.074-.163.136-.213.136a.093.093 0 0 0-.092.094c0 .054-.107.113-.25.139-.15.027-.25.084-.25.144 0 .054-.048.098-.107.098s-.108.046-.108.102c0 .057-.063.102-.143.102-.079 0-.143.046-.143.102a.105.105 0 0 1-.107.102c-.059 0-.107.06-.107.136 0 .11-.048.136-.25.136-.175 0-.251.03-.251.102a.105.105 0 0 1-.107.102c-.059 0-.107.06-.107.136 0 .09-.048.136-.143.136-.079 0-.143.045-.143.102a.105.105 0 0 1-.107.102c-.06 0-.107.06-.107.136 0 .075-.048.136-.108.136-.059 0-.107.039-.107.087 0 .047-.064.139-.143.203-.079.064-.143.178-.143.253 0 .076-.047.137-.107.137-.059 0-.107.042-.107.094 0 .051-.065.11-.143.13-.104.025-.143.092-.143.245 0 .142-.035.21-.108.21-.059 0-.107.06-.107.136 0 .075-.047.136-.104.136-.062 0-.123.096-.151.238-.027.136-.089.238-.146.238-.07 0-.099.09-.099.306s-.029.306-.1.306c-.056 0-.119.1-.144.231-.026.127-.093.249-.151.27-.078.028-.106.154-.106.482 0 .328-.025.444-.096.444-.072 0-.108.179-.141.697-.025.382-.078.706-.118.719-.044.014-.074.295-.074.692 0 .397.03.677.074.691.04.013.093.337.118.72.033.518.069.696.141.696.068 0 .096.1.096.34 0 .242.028.34.098.34.064 0 .115.119.146.34.032.232.08.34.152.34s.105.074.105.237c0 .158.033.238.099.238.057 0 .119.102.146.238.028.143.089.238.151.238.057 0 .104.061.104.136 0 .076.048.136.107.136.072 0 .108.068.108.204 0 .159.031.204.143.204.095 0 .143.045.143.136 0 .075.047.136.107.136.059 0 .107.046.107.102 0 .056.048.102.107.102s.108.048.108.108.064.124.143.144c.078.02.143.078.143.13 0 .051.048.094.107.094s.107.042.107.094c0 .051.064.11.143.13.079.019.143.083.143.143 0 .06.048.108.107.108s.107.046.107.102c0 .057.064.102.143.102.08 0 .143.046.143.102 0 .056.049.102.108.102s.107.06.107.136c0 .11.048.136.25.136.175 0 .25.03.25.102 0 .056.049.102.108.102s.107.045.107.099c0 .06.1.117.25.144.143.025.25.084.25.138 0 .052.065.095.143.095.079 0 .143.044.143.099 0 .059.101.117.25.143.144.026.251.085.251.14 0 .059.079.094.214.094.141 0 .215.034.215.1 0 .068.112.113.357.144.232.03.358.078.358.138 0 .061.086.094.25.094s.25.032.25.093c0 .015.007.029.022.042h17.046Zm-31.744 0c.013-.173.023-.425.032-.785.022-.867.051-1.139.128-1.184.077-.045.107-.32.132-1.186.026-.894.053-1.127.131-1.127.078 0 .098-.206.098-1.05 0-.916.015-1.059.12-1.115.109-.057.121-.227.117-1.61-.003-1.358-.018-1.553-.12-1.608-.097-.05-.117-.183-.117-.738 0-.556-.02-.677-.108-.677-.081 0-.107-.082-.107-.336 0-.238-.033-.355-.115-.398-.069-.037-.129-.187-.152-.377-.024-.205-.072-.316-.135-.316-.069 0-.098-.092-.098-.306 0-.216-.03-.306-.1-.306-.056 0-.119-.102-.146-.238-.028-.142-.089-.238-.151-.238-.071 0-.104-.075-.104-.238 0-.166-.032-.238-.107-.238-.06 0-.107-.06-.107-.136 0-.09-.048-.136-.143-.136-.111 0-.143-.045-.143-.203 0-.136-.036-.204-.107-.204-.06 0-.108-.06-.108-.136 0-.075-.045-.136-.101-.136-.056 0-.123-.092-.149-.204-.026-.112-.093-.204-.149-.204-.055 0-.101-.061-.101-.136 0-.075-.045-.136-.099-.136-.054 0-.116-.061-.136-.136-.021-.075-.089-.136-.152-.136-.062 0-.114-.046-.114-.102a.105.105 0 0 0-.107-.102.105.105 0 0 1-.107-.102c0-.056-.051-.102-.114-.102s-.131-.06-.151-.136c-.021-.075-.082-.136-.137-.136a.101.101 0 0 1-.099-.102c0-.056-.063-.102-.142-.102-.08 0-.143-.045-.143-.102 0-.056-.049-.102-.108-.102s-.107-.06-.107-.136c0-.11-.048-.135-.25-.135-.203 0-.25-.026-.25-.136 0-.075-.045-.136-.1-.136-.055 0-.118-.046-.141-.102-.024-.06-.131-.102-.258-.102-.145 0-.216-.034-.216-.102 0-.056-.041-.102-.092-.102-.05 0-.146-.061-.213-.136a.47.47 0 0 0-.302-.136c-.112 0-.18-.039-.18-.102 0-.068-.071-.102-.214-.102-.135 0-.215-.035-.215-.094 0-.103-.212-.175-.518-.177-.127 0-.197-.037-.197-.103 0-.077-.087-.102-.357-.102-.262 0-.358-.026-.358-.097 0-.067-.123-.112-.393-.144-.263-.031-.393-.077-.393-.14 0-.073-.138-.095-.608-.095-.492 0-.607-.019-.607-.102 0-.088-.294-.102-2.217-.102-1.922 0-2.216.014-2.216.102 0 .083-.115.102-.607.102-.478 0-.608.021-.608.097 0 .069-.134.11-.465.144-.324.033-.465.076-.465.141 0 .068-.1.094-.357.094-.27 0-.357.025-.357.102 0 .072-.077.102-.257.102-.197 0-.266.032-.295.136-.03.11-.097.136-.35.136-.231 0-.314.027-.314.102 0 .057-.063.102-.143.102-.078 0-.143.042-.143.094 0 .054-.107.114-.25.14-.15.026-.25.084-.25.143 0 .068-.079.099-.25.099-.169 0-.251.031-.251.096 0 .053-.093.116-.208.14-.115.024-.226.088-.248.142a.173.173 0 0 1-.149.098c-.06 0-.11.042-.11.094 0 .054-.107.113-.25.139-.15.027-.25.084-.25.144 0 .054-.048.098-.107.098s-.108.046-.108.102c0 .072-.075.102-.25.102-.202 0-.25.026-.25.136 0 .076-.048.136-.107.136a.105.105 0 0 0-.107.102c0 .057-.064.102-.143.102-.08 0-.143.045-.143.102 0 .056-.042.102-.092.102-.05 0-.146.061-.214.136a.425.425 0 0 1-.266.136c-.08 0-.143.045-.143.102 0 .056-.049.102-.108.102a.105.105 0 0 1-.107-.102c0-.057-.063-.102-.143-.102-.095 0-.143-.045-.143-.136 0-.075-.047-.136-.107-.136a.105.105 0 0 1-.107-.102c0-.056-.049-.102-.108-.102a.109.109 0 0 1-.107-.108c0-.06-.064-.124-.143-.144-.078-.02-.143-.078-.143-.13 0-.051-.048-.094-.107-.094a.108.108 0 0 1-.107-.108c0-.06-.065-.124-.143-.144-.079-.02-.143-.078-.143-.13 0-.051-.048-.093-.107-.093s-.108-.046-.108-.102c0-.057-.063-.102-.143-.102-.078 0-.143-.044-.143-.097 0-.053-.096-.117-.214-.141-.118-.025-.215-.089-.215-.142 0-.053-.064-.096-.143-.096-.078 0-.143-.045-.143-.1 0-.058-.1-.116-.25-.143-.143-.025-.25-.085-.25-.139 0-.052-.064-.094-.143-.094-.079 0-.143-.045-.143-.102 0-.068-.071-.102-.211-.102-.117 0-.239-.047-.274-.107-.034-.059-.197-.124-.361-.145-.185-.023-.298-.073-.298-.13 0-.067-.102-.094-.357-.094-.27 0-.358-.025-.358-.102 0-.062-.066-.102-.17-.102-.322 0-.616-.085-.616-.178 0-.072-.14-.094-.608-.094-.492 0-.608-.019-.608-.102 0-.088-.317-.102-2.43-.102-2.031 0-2.431.016-2.431.095 0 .071-.143.101-.575.12-.362.015-.596.056-.631.11-.031.048-.222.106-.426.129-.243.027-.37.073-.37.134 0 .065-.103.092-.357.092-.27 0-.358.025-.358.102 0 .071-.075.102-.25.102-.202 0-.25.026-.25.136 0 .118-.048.136-.358.136-.27 0-.357.025-.357.102 0 .057-.064.102-.143.102-.079 0-.143.044-.143.099 0 .059-.1.117-.25.143-.144.026-.25.085-.25.14 0 .059-.08.094-.215.094s-.214.034-.214.094c0 .054-.107.114-.251.14-.149.026-.25.084-.25.143 0 .054-.064.099-.143.099-.078 0-.143.043-.143.096 0 .053-.096.117-.214.142-.118.024-.215.088-.215.14 0 .066-.081.097-.25.097-.175 0-.25-.03-.25-.102a.105.105 0 0 0-.107-.102c-.06 0-.108-.06-.108-.136 0-.09-.047-.135-.143-.135-.115 0-.143-.046-.143-.238 0-.157-.033-.238-.098-.238-.072 0-.107-.145-.131-.55-.019-.303-.065-.57-.104-.595a.387.387 0 0 1-.116-.164c-.044-.111-.318-.119-4.392-.118-2.39 0-4.418.02-4.506.042-.089.023-.161.083-.161.135 0 .052-.064.094-.143.094-.093 0-.143.046-.143.13 0 .072-.04.143-.089.159-.064.02-.097.284-.113.923-.019.718-.044.895-.125.895-.078 0-.103.115-.106.493-.009 1.062-.076 1.715-.18 1.771-.081.043-.102.266-.102 1.105 0 .888-.016 1.05-.107 1.05s-.107.174-.107 1.155c0 .93-.019 1.156-.098 1.156-.127 0-.187.484-.188 1.513 0 .664-.018.798-.108.798-.091 0-.107.174-.107 1.156s-.016 1.155-.107 1.155c-.086 0-.107.1-.108.493-.001.907-.083 1.615-.189 1.615-.077 0-.096.23-.096 1.155 0 .924-.02 1.156-.097 1.156-.073 0-.104.24-.136 1.087h12.712l.02-.458c.009-.267.039-.357.119-.357.091 0 .107-.174.107-1.156 0-.934.019-1.155.098-1.155.078 0 .105-.237.13-1.161.021-.743.06-1.178.111-1.208.043-.025.101-.13.128-.232.027-.103.094-.186.149-.186.054 0 .099-.062.099-.136 0-.091.048-.136.144-.136a.425.425 0 0 0 .266-.136c.067-.075.163-.136.214-.136.05 0 .091-.046.091-.102 0-.057.064-.102.143-.102.079 0 .143-.044.143-.097 0-.053.094-.116.209-.14.114-.024.226-.087.248-.141a.17.17 0 0 1 .149-.098c.06 0 .109-.046.109-.102 0-.071.075-.102.25-.102.169 0 .25-.032.25-.096 0-.07.135-.11.465-.144.324-.033.465-.076.465-.142 0-.076.212-.094 1.108-.094.898 0 1.108.018 1.108.095 0 .053.105.113.243.137.134.024.262.089.284.144.023.058.132.1.257.1.145 0 .217.034.217.102 0 .056.048.102.107.102s.107.049.107.108c0 .06.065.125.143.144.08.02.143.093.143.164 0 .07.049.128.108.128.079 0 .107.08.107.306 0 .214.029.306.098.306.147 0 .188.316.188 1.459 0 1.54-.072 2.483-.19 2.483-.076 0-.096.215-.096 1.054 0 .588-.01.87-.042.985h12.767v-.034c0-.844.02-1.053.098-1.053.077 0 .105-.221.132-1.026.025-.748.06-1.042.129-1.082.07-.04.103-.344.128-1.149.026-.865.053-1.094.131-1.094.066 0 .097-.087.097-.272 0-.196.03-.271.108-.271a.105.105 0 0 0 .107-.102c0-.057.063-.102.143-.102.078 0 .143-.043.143-.094 0-.052.064-.11.143-.13.078-.02.143-.084.143-.144 0-.075.066-.108.214-.108.143 0 .215-.034.215-.102 0-.056.049-.102.109-.102s.127-.044.149-.098c.022-.054.133-.117.248-.141.115-.024.209-.087.209-.14 0-.065.081-.097.246-.097.157 0 .272-.042.314-.114.048-.081.193-.123.504-.144.309-.021.437-.058.437-.124 0-.075.198-.094 1.001-.094.8 0 1.001.019 1.001.093 0 .06.125.11.357.139.245.03.358.076.358.144 0 .066.073.1.214.1.135 0 .215.035.215.094 0 .052.064.11.143.13.078.02.143.084.143.144 0 .06.048.108.107.108.071 0 .107.068.107.204 0 .13.037.204.101.204.062 0 .12.104.149.272.03.167.088.272.15.272.084 0 .101.285.101 1.733 0 1.413-.018 1.733-.097 1.733-.075 0-.109.229-.148 1.003-.039.76-.076 1.016-.154 1.057-.051.027-.078.122-.091.387h12.909Zm-61.764 0c.012-.174.015-.442.015-.853 0-.894.019-1.118.097-1.118.075 0 .105-.244.136-1.13.027-.801.065-1.146.129-1.184.063-.037.1-.363.124-1.112.026-.835.054-1.06.131-1.06.08 0 .098-.293.098-1.598 0-1.315-.018-1.597-.099-1.597-.076 0-.106-.16-.128-.684-.02-.487-.057-.7-.128-.742-.061-.036-.112-.22-.131-.472-.022-.292-.061-.413-.13-.413-.068 0-.099-.086-.099-.272 0-.186-.031-.272-.099-.272-.103 0-.184-.2-.186-.459-.001-.09-.045-.153-.108-.153-.075 0-.107-.072-.107-.238 0-.157-.034-.238-.1-.238-.057 0-.119-.101-.146-.238-.028-.142-.089-.238-.151-.238-.057 0-.104-.06-.104-.136 0-.075-.048-.136-.107-.136-.072 0-.107-.068-.107-.21 0-.153-.039-.22-.143-.246-.079-.02-.143-.078-.143-.13 0-.05-.049-.093-.108-.093-.071 0-.107-.068-.107-.204 0-.141-.035-.204-.114-.204-.062 0-.13-.061-.151-.136-.021-.075-.082-.136-.136-.136-.055 0-.099-.061-.099-.136 0-.075-.048-.136-.107-.136s-.108-.046-.108-.102c0-.056-.063-.102-.143-.102-.079 0-.143-.045-.143-.102a.105.105 0 0 0-.107-.102c-.059 0-.107-.06-.107-.136 0-.09-.048-.136-.143-.136-.08 0-.143-.045-.143-.102a.105.105 0 0 0-.107-.102c-.059 0-.108-.043-.108-.096 0-.053-.096-.117-.214-.142-.118-.024-.215-.088-.215-.14 0-.054-.06-.097-.134-.097a.19.19 0 0 1-.172-.136c-.021-.075-.089-.136-.152-.136-.062 0-.113-.046-.113-.102 0-.068-.072-.102-.215-.102-.143 0-.214-.034-.214-.102 0-.057-.064-.102-.143-.102-.079 0-.143-.045-.143-.1 0-.058-.101-.116-.251-.143-.143-.025-.25-.085-.25-.139 0-.062-.084-.094-.25-.094-.165 0-.25-.032-.25-.094 0-.103-.212-.175-.519-.177-.126 0-.196-.037-.196-.103 0-.071-.076-.102-.25-.102-.166 0-.251-.032-.251-.094 0-.065-.139-.108-.459-.14-.296-.03-.473-.082-.498-.145-.029-.073-.182-.097-.613-.097-.463 0-.574-.02-.574-.102 0-.088-.294-.102-2.217-.102-1.922 0-2.216.014-2.216.102 0 .083-.115.102-.608.102-.47 0-.607.022-.607.094 0 .066-.141.109-.465.142-.33.033-.465.075-.465.144 0 .071-.1.096-.393.096-.302 0-.393.024-.393.102 0 .069-.072.102-.221.102-.161 0-.232.037-.259.136-.03.113-.097.136-.386.136-.263 0-.35.025-.35.102 0 .057-.063.102-.143.102a.426.426 0 0 0-.266.136c-.068.075-.18.136-.25.136s-.127.046-.127.102c0 .068-.071.102-.214.102-.136 0-.215.034-.215.094 0 .054-.107.114-.25.14-.15.026-.25.084-.25.143 0 .054-.065.099-.143.099-.079 0-.143.043-.143.096 0 .053-.097.117-.215.142-.118.024-.214.088-.214.14 0 .054-.064.097-.143.097-.08 0-.143.046-.143.102 0 .068-.07.102-.206.102-.146 0-.217.04-.244.136-.02.075-.088.136-.151.136s-.114.046-.114.102a.105.105 0 0 1-.107.102c-.06 0-.108.043-.108.095 0 .054-.106.113-.25.139-.15.026-.25.084-.25.143 0 .055-.048.099-.107.099a.105.105 0 0 0-.108.102c0 .057-.063.102-.142.102-.08 0-.143-.045-.143-.102a.105.105 0 0 0-.108-.102c-.06 0-.107-.06-.107-.136 0-.075-.048-.136-.107-.136a.105.105 0 0 1-.107-.102c0-.056-.064-.102-.143-.102-.096 0-.143-.045-.143-.136 0-.075-.048-.136-.108-.136a.105.105 0 0 1-.107-.102c0-.056-.063-.102-.143-.102-.095 0-.143-.045-.143-.136 0-.075-.047-.136-.107-.136a.105.105 0 0 1-.107-.102c0-.056-.064-.102-.143-.102-.08 0-.143-.045-.143-.101a.105.105 0 0 0-.108-.102c-.058 0-.107-.045-.107-.1 0-.059-.1-.116-.25-.143-.143-.025-.25-.085-.25-.139 0-.052-.064-.094-.143-.094-.079 0-.143-.044-.143-.097 0-.053-.097-.117-.215-.141-.118-.025-.214-.088-.214-.142 0-.053-.064-.096-.143-.096-.08 0-.143-.045-.143-.102 0-.071-.076-.102-.25-.102-.166 0-.25-.032-.25-.094 0-.103-.213-.175-.519-.177-.126 0-.196-.037-.196-.103 0-.077-.088-.102-.358-.102s-.357-.025-.357-.102c0-.062-.067-.102-.17-.102-.322 0-.617-.085-.617-.178 0-.072-.14-.094-.607-.094-.493 0-.608-.019-.608-.102 0-.088-.306-.102-2.324-.102-2.017 0-2.323.014-2.323.102 0 .083-.115.102-.603.102-.448 0-.63.027-.713.105-.06.058-.272.123-.47.146-.234.026-.359.072-.359.133 0 .065-.103.092-.357.092-.27 0-.358.025-.358.102 0 .07-.074.102-.242.102-.181 0-.25.034-.279.136-.027.099-.097.136-.258.136-.14 0-.222.034-.222.093 0 .06-.117.106-.332.129-.2.021-.358.079-.397.145-.035.06-.11.109-.168.109a.103.103 0 0 0-.103.102c0 .071-.076.102-.25.102-.17 0-.251.031-.251.096 0 .053-.097.117-.215.142-.117.024-.214.088-.214.141 0 .053-.064.097-.143.097-.079 0-.143.043-.143.096 0 .053-.094.116-.208.14-.115.024-.227.088-.248.142-.094.23-.754-.025-.758-.294 0-.046-.05-.084-.108-.084-.075 0-.108-.072-.108-.238 0-.157-.033-.238-.098-.238-.118 0-.188-.294-.188-.79 0-.28-.025-.366-.107-.366-.06 0-.107-.06-.107-.136 0-.134-.048-.136-4.317-.136-2.373 0-4.416.02-4.54.043-.122.023-.223.084-.223.136 0 .051-.048.093-.107.093-.071 0-.107.068-.107.204 0 .127-.037.204-.097.204-.109 0-.19.54-.19 1.268 0 .338-.022.431-.106.431-.091 0-.108.163-.108 1.054s-.016 1.054-.107 1.054c-.09 0-.107.17-.107 1.118 0 .943-.018 1.128-.112 1.178-.091.048-.12.264-.154 1.192-.033.886-.063 1.134-.138 1.134-.077 0-.096.232-.096 1.156 0 .981-.017 1.155-.108 1.155-.086 0-.108.106-.111.527-.007.885-.074 1.542-.162 1.594-.057.034-.091.407-.107 1.174-.017.867-.044 1.124-.116 1.124-.071 0-.1.262-.125 1.127-.025.847-.057 1.141-.13 1.184-.07.04-.102.314-.126 1.087H70.86c.007-.565.031-.68.104-.68.087 0 .108-.112.112-.594.008-1.151.072-1.815.18-1.873.082-.043.102-.28.102-1.206 0-.98.016-1.153.107-1.153.06 0 .107-.06.107-.136 0-.075.064-.19.143-.253.079-.064.143-.156.143-.204 0-.047.065-.086.144-.086a.426.426 0 0 0 .266-.136c.067-.075.163-.136.214-.136.05 0 .091-.046.091-.102 0-.056.048-.102.107-.102.06 0 .108-.043.108-.095 0-.054.106-.113.25-.139.15-.026.25-.084.25-.143 0-.055.064-.099.143-.099.08 0 .143-.045.143-.102 0-.071.075-.102.25-.102.169 0 .25-.032.25-.096 0-.07.135-.11.465-.144.324-.033.465-.076.465-.142 0-.076.212-.094 1.108-.094.898 0 1.108.018 1.108.095 0 .054.107.113.25.139.15.026.25.084.25.143 0 .065.075.1.215.1.143 0 .214.033.214.101 0 .057.064.102.143.102.096 0 .143.045.143.136 0 .076.048.136.108.136.058 0 .107.044.107.099 0 .054.05.125.112.158s.13.187.153.343c.024.176.077.284.137.284.08 0 .098.348.098 1.97 0 1.62-.017 1.972-.097 1.972-.077 0-.105.221-.133 1.026-.019.58-.044.885-.087 1.013H91.6c.025-.64.094-1.087.178-1.087.077 0 .097-.214.097-1.054 0-.84.02-1.053.096-1.053s.106-.24.137-1.097c.022-.613.072-1.116.111-1.139.04-.023.094-.156.122-.297.03-.149.091-.254.15-.254a.1.1 0 0 0 .099-.102c0-.057.063-.102.143-.102.08 0 .143-.046.143-.102 0-.056.048-.102.107-.102.06 0 .107-.06.107-.136 0-.11.048-.136.25-.136.175 0 .25-.03.25-.102 0-.056.049-.102.108-.102s.107-.045.107-.099c0-.06.1-.117.25-.144.144-.025.25-.084.25-.138 0-.063.085-.095.25-.095.165 0 .251-.032.251-.093 0-.101.3-.179.688-.179.167 0 .241-.031.241-.102 0-.086.16-.102 1.001-.102.842 0 1.001.016 1.001.102 0 .066.07.103.197.103.306.002.518.074.518.177 0 .062.085.094.25.094.175 0 .25.03.25.102 0 .056.049.102.108.102.06 0 .107.06.107.136 0 .075.046.136.102.136.055 0 .122.092.148.204.026.112.093.204.149.204.07 0 .102.082.102.272 0 .184.03.272.097.272.127 0 .188.433.188 1.324 0 1.221-.081 2.142-.19 2.142-.076 0-.096.21-.096 1.02 0 .816-.02 1.02-.097 1.02-.051 0-.081.099-.103.407h12.911Z" fill="#424242"/></svg>