<svg width="424" height="163" viewBox="0 0 424 163" fill="none" xmlns="http://www.w3.org/2000/svg">
<g opacity="0.36">
<path d="M20.137 156.319L16.2531 152.435L6.19145 162.497L0.883911 157.189L10.9456 147.128L7.06165 143.244L21.8432 141.538L20.137 156.319Z" fill="#444444"/>
<path d="M47.137 156.319L43.2531 152.435L33.1914 162.497L27.8839 157.189L37.9456 147.128L34.0617 143.244L48.8432 141.538L47.137 156.319Z" fill="#444444"/>
<path d="M74.137 156.319L70.2531 152.435L60.1914 162.497L54.8839 157.189L64.9456 147.128L61.0617 143.244L75.8432 141.538L74.137 156.319Z" fill="#444444"/>
<path d="M101.137 156.319L97.2531 152.435L87.1915 162.497L81.8839 157.189L91.9456 147.128L88.0617 143.244L102.843 141.538L101.137 156.319Z" fill="#444444"/>
<path d="M128.137 156.319L124.253 152.435L114.191 162.497L108.884 157.189L118.946 147.128L115.062 143.244L129.843 141.538L128.137 156.319Z" fill="#444444"/>
<path d="M155.137 156.319L151.253 152.435L141.191 162.497L135.884 157.189L145.946 147.128L142.062 143.244L156.843 141.538L155.137 156.319Z" fill="#444444"/>
<path d="M182.137 156.319L178.253 152.435L168.191 162.497L162.884 157.189L172.946 147.128L169.062 143.244L183.843 141.538L182.137 156.319Z" fill="#444444"/>
<path d="M209.137 156.319L205.253 152.435L195.191 162.497L189.884 157.189L199.946 147.128L196.062 143.244L210.843 141.538L209.137 156.319Z" fill="#444444"/>
<path d="M236.137 156.319L232.253 152.435L222.191 162.497L216.884 157.189L226.946 147.128L223.062 143.244L237.843 141.538L236.137 156.319Z" fill="#444444"/>
<path d="M263.137 156.319L259.253 152.435L249.191 162.497L243.884 157.189L253.946 147.128L250.062 143.244L264.843 141.538L263.137 156.319Z" fill="#444444"/>
<path d="M290.137 156.319L286.253 152.435L276.191 162.497L270.884 157.189L280.946 147.128L277.062 143.244L291.843 141.538L290.137 156.319Z" fill="#444444"/>
<path d="M317.137 156.319L313.253 152.435L303.191 162.497L297.884 157.189L307.946 147.128L304.062 143.244L318.843 141.538L317.137 156.319Z" fill="#444444"/>
<path d="M344.137 156.319L340.253 152.435L330.191 162.497L324.884 157.189L334.946 147.128L331.062 143.244L345.843 141.538L344.137 156.319Z" fill="#444444"/>
<path d="M371.137 156.319L367.253 152.435L357.191 162.497L351.884 157.189L361.946 147.128L358.062 143.244L372.843 141.538L371.137 156.319Z" fill="#444444"/>
<path d="M398.137 156.319L394.253 152.435L384.191 162.497L378.884 157.189L388.946 147.128L385.062 143.244L399.843 141.538L398.137 156.319Z" fill="#444444"/>
<path d="M425.137 156.319L421.253 152.435L411.191 162.497L405.884 157.189L415.946 147.128L412.062 143.244L426.843 141.538L425.137 156.319Z" fill="#444444"/>
<path d="M452.137 156.319L448.253 152.435L438.191 162.497L432.884 157.189L442.946 147.128L439.062 143.244L453.843 141.538L452.137 156.319Z" fill="#444444"/>
<path d="M45.2531 132.782L41.3692 128.898L31.3075 138.959L26 133.652L36.0617 123.59L32.1777 119.706L46.9593 118L45.2531 132.782Z" fill="#444444"/>
<path d="M72.2531 132.782L68.3692 128.898L58.3075 138.959L53 133.652L63.0617 123.59L59.1777 119.706L73.9593 118L72.2531 132.782Z" fill="#444444"/>
<path d="M99.2531 132.782L95.3692 128.898L85.3075 138.959L80 133.652L90.0617 123.59L86.1777 119.706L100.959 118L99.2531 132.782Z" fill="#444444"/>
<path d="M126.253 132.782L122.369 128.898L112.308 138.959L107 133.652L117.062 123.59L113.178 119.706L127.959 118L126.253 132.782Z" fill="#444444"/>
<path d="M153.253 132.782L149.369 128.898L139.308 138.959L134 133.652L144.062 123.59L140.178 119.706L154.959 118L153.253 132.782Z" fill="#444444"/>
<path d="M180.253 132.782L176.369 128.898L166.308 138.959L161 133.652L171.062 123.59L167.178 119.706L181.959 118L180.253 132.782Z" fill="#444444"/>
<path d="M207.253 132.782L203.369 128.898L193.308 138.959L188 133.652L198.062 123.59L194.178 119.706L208.959 118L207.253 132.782Z" fill="#444444"/>
<path d="M234.253 132.782L230.369 128.898L220.308 138.959L215 133.652L225.062 123.59L221.178 119.706L235.959 118L234.253 132.782Z" fill="#444444"/>
<path d="M261.253 132.782L257.369 128.898L247.308 138.959L242 133.652L252.062 123.59L248.178 119.706L262.959 118L261.253 132.782Z" fill="#444444"/>
<path d="M288.253 132.782L284.369 128.898L274.308 138.959L269 133.652L279.062 123.59L275.178 119.706L289.959 118L288.253 132.782Z" fill="#444444"/>
<path d="M315.253 132.782L311.369 128.898L301.308 138.959L296 133.652L306.062 123.59L302.178 119.706L316.959 118L315.253 132.782Z" fill="#444444"/>
<path d="M342.253 132.782L338.369 128.898L328.308 138.959L323 133.652L333.062 123.59L329.178 119.706L343.959 118L342.253 132.782Z" fill="#444444"/>
<path d="M369.253 132.782L365.369 128.898L355.308 138.959L350 133.652L360.062 123.59L356.178 119.706L370.959 118L369.253 132.782Z" fill="#444444"/>
<path d="M396.253 132.782L392.369 128.898L382.308 138.959L377 133.652L387.062 123.59L383.178 119.706L397.959 118L396.253 132.782Z" fill="#444444"/>
<path d="M423.253 132.782L419.369 128.898L409.308 138.959L404 133.652L414.062 123.59L410.178 119.706L424.959 118L423.253 132.782Z" fill="#444444"/>
<path d="M450.253 132.782L446.369 128.898L436.308 138.959L431 133.652L441.062 123.59L437.178 119.706L451.959 118L450.253 132.782Z" fill="#444444"/>
<path d="M477.253 132.782L473.369 128.898L463.308 138.959L458 133.652L468.062 123.59L464.178 119.706L478.959 118L477.253 132.782Z" fill="#444444"/>
<path d="M70.3692 109.244L66.4853 105.36L56.4236 115.422L51.1161 110.114L61.1777 100.052L57.2938 96.1685L72.0754 94.4623L70.3692 109.244Z" fill="#444444"/>
<path d="M97.3692 109.244L93.4853 105.36L83.4236 115.422L78.1161 110.114L88.1777 100.052L84.2938 96.1685L99.0754 94.4623L97.3692 109.244Z" fill="#444444"/>
<path d="M124.369 109.244L120.485 105.36L110.424 115.422L105.116 110.114L115.178 100.052L111.294 96.1685L126.075 94.4623L124.369 109.244Z" fill="#444444"/>
<path d="M151.369 109.244L147.485 105.36L137.424 115.422L132.116 110.114L142.178 100.052L138.294 96.1685L153.075 94.4623L151.369 109.244Z" fill="#444444"/>
<path d="M178.369 109.244L174.485 105.36L164.424 115.422L159.116 110.114L169.178 100.052L165.294 96.1685L180.075 94.4623L178.369 109.244Z" fill="#444444"/>
<path d="M205.369 109.244L201.485 105.36L191.424 115.422L186.116 110.114L196.178 100.052L192.294 96.1685L207.075 94.4623L205.369 109.244Z" fill="#444444"/>
<path d="M232.369 109.244L228.485 105.36L218.424 115.422L213.116 110.114L223.178 100.052L219.294 96.1685L234.075 94.4623L232.369 109.244Z" fill="#444444"/>
<path d="M259.369 109.244L255.485 105.36L245.424 115.422L240.116 110.114L250.178 100.052L246.294 96.1685L261.075 94.4623L259.369 109.244Z" fill="#444444"/>
<path d="M286.369 109.244L282.485 105.36L272.424 115.422L267.116 110.114L277.178 100.052L273.294 96.1685L288.075 94.4623L286.369 109.244Z" fill="#444444"/>
<path d="M313.369 109.244L309.485 105.36L299.424 115.422L294.116 110.114L304.178 100.052L300.294 96.1685L315.075 94.4623L313.369 109.244Z" fill="#444444"/>
<path d="M340.369 109.244L336.485 105.36L326.424 115.422L321.116 110.114L331.178 100.052L327.294 96.1685L342.075 94.4623L340.369 109.244Z" fill="#444444"/>
<path d="M367.369 109.244L363.485 105.36L353.424 115.422L348.116 110.114L358.178 100.052L354.294 96.1685L369.075 94.4623L367.369 109.244Z" fill="#444444"/>
<path d="M394.369 109.244L390.485 105.36L380.424 115.422L375.116 110.114L385.178 100.052L381.294 96.1685L396.075 94.4623L394.369 109.244Z" fill="#444444"/>
<path d="M421.369 109.244L417.485 105.36L407.424 115.422L402.116 110.114L412.178 100.052L408.294 96.1685L423.075 94.4623L421.369 109.244Z" fill="#444444"/>
<path d="M448.369 109.244L444.485 105.36L434.424 115.422L429.116 110.114L439.178 100.052L435.294 96.1685L450.075 94.4623L448.369 109.244Z" fill="#444444"/>
<path d="M475.369 109.244L471.485 105.36L461.424 115.422L456.116 110.114L466.178 100.052L462.294 96.1685L477.075 94.4623L475.369 109.244Z" fill="#444444"/>
<path d="M502.369 109.244L498.485 105.36L488.424 115.422L483.116 110.114L493.178 100.052L489.294 96.1685L504.075 94.4623L502.369 109.244Z" fill="#444444"/>
<path d="M95.4853 85.7061L91.6014 81.8222L81.5397 91.8839L76.2322 86.5763L86.2938 76.5147L82.4099 72.6307L97.1915 70.9246L95.4853 85.7061Z" fill="#444444"/>
<path d="M122.485 85.7061L118.601 81.8222L108.54 91.8839L103.232 86.5763L113.294 76.5147L109.41 72.6307L124.191 70.9246L122.485 85.7061Z" fill="#444444"/>
<path d="M149.485 85.7061L145.601 81.8222L135.54 91.8839L130.232 86.5763L140.294 76.5147L136.41 72.6307L151.191 70.9246L149.485 85.7061Z" fill="#444444"/>
<path d="M176.485 85.7061L172.601 81.8222L162.54 91.8839L157.232 86.5763L167.294 76.5147L163.41 72.6307L178.191 70.9246L176.485 85.7061Z" fill="#444444"/>
<path d="M203.485 85.7061L199.601 81.8222L189.54 91.8839L184.232 86.5763L194.294 76.5147L190.41 72.6307L205.191 70.9246L203.485 85.7061Z" fill="#444444"/>
<path d="M230.485 85.7061L226.601 81.8222L216.54 91.8839L211.232 86.5763L221.294 76.5147L217.41 72.6307L232.191 70.9246L230.485 85.7061Z" fill="#444444"/>
<path d="M257.485 85.7061L253.601 81.8222L243.54 91.8839L238.232 86.5763L248.294 76.5147L244.41 72.6307L259.191 70.9246L257.485 85.7061Z" fill="#444444"/>
<path d="M284.485 85.7061L280.601 81.8222L270.54 91.8839L265.232 86.5763L275.294 76.5147L271.41 72.6307L286.191 70.9246L284.485 85.7061Z" fill="#444444"/>
<path d="M311.485 85.7061L307.601 81.8222L297.54 91.8839L292.232 86.5763L302.294 76.5147L298.41 72.6307L313.191 70.9246L311.485 85.7061Z" fill="#444444"/>
<path d="M338.485 85.7061L334.601 81.8222L324.54 91.8839L319.232 86.5763L329.294 76.5147L325.41 72.6307L340.191 70.9246L338.485 85.7061Z" fill="#444444"/>
<path d="M365.485 85.7061L361.601 81.8222L351.54 91.8839L346.232 86.5763L356.294 76.5147L352.41 72.6307L367.191 70.9246L365.485 85.7061Z" fill="#444444"/>
<path d="M392.485 85.7061L388.601 81.8222L378.54 91.8839L373.232 86.5763L383.294 76.5147L379.41 72.6307L394.191 70.9246L392.485 85.7061Z" fill="#444444"/>
<path d="M419.485 85.7061L415.601 81.8222L405.54 91.8839L400.232 86.5763L410.294 76.5147L406.41 72.6307L421.191 70.9246L419.485 85.7061Z" fill="#444444"/>
<path d="M446.485 85.7061L442.601 81.8222L432.54 91.8839L427.232 86.5763L437.294 76.5147L433.41 72.6307L448.191 70.9246L446.485 85.7061Z" fill="#444444"/>
<path d="M473.485 85.7061L469.601 81.8222L459.54 91.8839L454.232 86.5763L464.294 76.5147L460.41 72.6307L475.191 70.9246L473.485 85.7061Z" fill="#444444"/>
<path d="M500.485 85.7061L496.601 81.8222L486.54 91.8839L481.232 86.5763L491.294 76.5147L487.41 72.6307L502.191 70.9246L500.485 85.7061Z" fill="#444444"/>
<path d="M527.485 85.7061L523.601 81.8222L513.54 91.8839L508.232 86.5763L518.294 76.5147L514.41 72.6307L529.191 70.9246L527.485 85.7061Z" fill="#444444"/>
<path d="M120.601 62.1684L116.717 58.2845L106.656 68.3461L101.348 63.0386L111.41 52.9769L107.526 49.093L122.308 47.3868L120.601 62.1684Z" fill="#444444"/>
<path d="M147.601 62.1684L143.717 58.2845L133.656 68.3461L128.348 63.0386L138.41 52.9769L134.526 49.093L149.308 47.3868L147.601 62.1684Z" fill="#444444"/>
<path d="M174.601 62.1684L170.717 58.2845L160.656 68.3461L155.348 63.0386L165.41 52.9769L161.526 49.093L176.308 47.3868L174.601 62.1684Z" fill="#444444"/>
<path d="M201.601 62.1684L197.717 58.2845L187.656 68.3461L182.348 63.0386L192.41 52.9769L188.526 49.093L203.308 47.3868L201.601 62.1684Z" fill="#444444"/>
<path d="M228.601 62.1684L224.717 58.2845L214.656 68.3461L209.348 63.0386L219.41 52.9769L215.526 49.093L230.308 47.3868L228.601 62.1684Z" fill="#444444"/>
<path d="M255.601 62.1684L251.717 58.2845L241.656 68.3461L236.348 63.0386L246.41 52.9769L242.526 49.093L257.308 47.3868L255.601 62.1684Z" fill="#444444"/>
<path d="M282.601 62.1684L278.717 58.2845L268.656 68.3461L263.348 63.0386L273.41 52.9769L269.526 49.093L284.308 47.3868L282.601 62.1684Z" fill="#444444"/>
<path d="M309.601 62.1684L305.717 58.2845L295.656 68.3461L290.348 63.0386L300.41 52.9769L296.526 49.093L311.308 47.3868L309.601 62.1684Z" fill="#444444"/>
<path d="M336.601 62.1684L332.717 58.2845L322.656 68.3461L317.348 63.0386L327.41 52.9769L323.526 49.093L338.308 47.3868L336.601 62.1684Z" fill="#444444"/>
<path d="M363.601 62.1684L359.717 58.2845L349.656 68.3461L344.348 63.0386L354.41 52.9769L350.526 49.093L365.308 47.3868L363.601 62.1684Z" fill="#444444"/>
<path d="M390.601 62.1684L386.717 58.2845L376.656 68.3461L371.348 63.0386L381.41 52.9769L377.526 49.093L392.308 47.3868L390.601 62.1684Z" fill="#444444"/>
<path d="M417.601 62.1684L413.717 58.2845L403.656 68.3461L398.348 63.0386L408.41 52.9769L404.526 49.093L419.308 47.3868L417.601 62.1684Z" fill="#444444"/>
<path d="M444.601 62.1684L440.717 58.2845L430.656 68.3461L425.348 63.0386L435.41 52.9769L431.526 49.093L446.308 47.3868L444.601 62.1684Z" fill="#444444"/>
<path d="M471.601 62.1684L467.717 58.2845L457.656 68.3461L452.348 63.0386L462.41 52.9769L458.526 49.093L473.308 47.3868L471.601 62.1684Z" fill="#444444"/>
<path d="M498.601 62.1684L494.717 58.2845L484.656 68.3461L479.348 63.0386L489.41 52.9769L485.526 49.093L500.308 47.3868L498.601 62.1684Z" fill="#444444"/>
<path d="M525.601 62.1684L521.717 58.2845L511.656 68.3461L506.348 63.0386L516.41 52.9769L512.526 49.093L527.308 47.3868L525.601 62.1684Z" fill="#444444"/>
<path d="M552.601 62.1684L548.717 58.2845L538.656 68.3461L533.348 63.0386L543.41 52.9769L539.526 49.093L554.308 47.3868L552.601 62.1684Z" fill="#444444"/>
<path d="M145.717 38.6307L141.834 34.7468L131.772 44.8084L126.464 39.5009L136.526 29.4392L132.642 25.5553L147.424 23.8491L145.717 38.6307Z" fill="#444444"/>
<path d="M172.717 38.6307L168.834 34.7468L158.772 44.8084L153.464 39.5009L163.526 29.4392L159.642 25.5553L174.424 23.8491L172.717 38.6307Z" fill="#444444"/>
<path d="M199.717 38.6307L195.834 34.7468L185.772 44.8084L180.464 39.5009L190.526 29.4392L186.642 25.5553L201.424 23.8491L199.717 38.6307Z" fill="#444444"/>
<path d="M226.717 38.6307L222.834 34.7468L212.772 44.8084L207.464 39.5009L217.526 29.4392L213.642 25.5553L228.424 23.8491L226.717 38.6307Z" fill="#444444"/>
<path d="M253.717 38.6307L249.834 34.7468L239.772 44.8084L234.464 39.5009L244.526 29.4392L240.642 25.5553L255.424 23.8491L253.717 38.6307Z" fill="#444444"/>
<path d="M280.717 38.6307L276.834 34.7468L266.772 44.8084L261.464 39.5009L271.526 29.4392L267.642 25.5553L282.424 23.8491L280.717 38.6307Z" fill="#444444"/>
<path d="M307.717 38.6307L303.834 34.7468L293.772 44.8084L288.464 39.5009L298.526 29.4392L294.642 25.5553L309.424 23.8491L307.717 38.6307Z" fill="#444444"/>
<path d="M334.717 38.6307L330.834 34.7468L320.772 44.8084L315.464 39.5009L325.526 29.4392L321.642 25.5553L336.424 23.8491L334.717 38.6307Z" fill="#444444"/>
<path d="M361.717 38.6307L357.834 34.7468L347.772 44.8084L342.464 39.5009L352.526 29.4392L348.642 25.5553L363.424 23.8491L361.717 38.6307Z" fill="#444444"/>
<path d="M388.717 38.6307L384.834 34.7468L374.772 44.8084L369.464 39.5009L379.526 29.4392L375.642 25.5553L390.424 23.8491L388.717 38.6307Z" fill="#444444"/>
<path d="M415.717 38.6307L411.834 34.7468L401.772 44.8084L396.464 39.5009L406.526 29.4392L402.642 25.5553L417.424 23.8491L415.717 38.6307Z" fill="#444444"/>
<path d="M442.717 38.6307L438.834 34.7468L428.772 44.8084L423.464 39.5009L433.526 29.4392L429.642 25.5553L444.424 23.8491L442.717 38.6307Z" fill="#444444"/>
<path d="M469.717 38.6307L465.834 34.7468L455.772 44.8084L450.464 39.5009L460.526 29.4392L456.642 25.5553L471.424 23.8491L469.717 38.6307Z" fill="#444444"/>
<path d="M496.717 38.6307L492.834 34.7468L482.772 44.8084L477.464 39.5009L487.526 29.4392L483.642 25.5553L498.424 23.8491L496.717 38.6307Z" fill="#444444"/>
<path d="M523.717 38.6307L519.834 34.7468L509.772 44.8084L504.464 39.5009L514.526 29.4392L510.642 25.5553L525.424 23.8491L523.717 38.6307Z" fill="#444444"/>
<path d="M550.717 38.6307L546.834 34.7468L536.772 44.8084L531.464 39.5009L541.526 29.4392L537.642 25.5553L552.424 23.8491L550.717 38.6307Z" fill="#444444"/>
<path d="M577.717 38.6307L573.834 34.7468L563.772 44.8084L558.464 39.5009L568.526 29.4392L564.642 25.5553L579.424 23.8491L577.717 38.6307Z" fill="#444444"/>
<path d="M170.834 15.093L166.95 11.209L156.888 21.2707L151.58 15.9632L161.642 5.9015L157.758 2.01758L172.54 0.311401L170.834 15.093Z" fill="#444444"/>
<path d="M197.834 15.093L193.95 11.209L183.888 21.2707L178.58 15.9632L188.642 5.9015L184.758 2.01758L199.54 0.311401L197.834 15.093Z" fill="#444444"/>
<path d="M224.834 15.093L220.95 11.209L210.888 21.2707L205.58 15.9632L215.642 5.9015L211.758 2.01758L226.54 0.311401L224.834 15.093Z" fill="#444444"/>
<path d="M251.834 15.093L247.95 11.209L237.888 21.2707L232.58 15.9632L242.642 5.9015L238.758 2.01758L253.54 0.311401L251.834 15.093Z" fill="#444444"/>
<path d="M278.834 15.093L274.95 11.209L264.888 21.2707L259.58 15.9632L269.642 5.9015L265.758 2.01758L280.54 0.311401L278.834 15.093Z" fill="#444444"/>
<path d="M305.834 15.093L301.95 11.209L291.888 21.2707L286.58 15.9632L296.642 5.9015L292.758 2.01758L307.54 0.311401L305.834 15.093Z" fill="#444444"/>
<path d="M332.834 15.093L328.95 11.209L318.888 21.2707L313.58 15.9632L323.642 5.9015L319.758 2.01758L334.54 0.311401L332.834 15.093Z" fill="#444444"/>
<path d="M359.834 15.093L355.95 11.209L345.888 21.2707L340.58 15.9632L350.642 5.9015L346.758 2.01758L361.54 0.311401L359.834 15.093Z" fill="#444444"/>
<path d="M386.834 15.093L382.95 11.209L372.888 21.2707L367.58 15.9632L377.642 5.9015L373.758 2.01758L388.54 0.311401L386.834 15.093Z" fill="#444444"/>
<path d="M413.834 15.093L409.95 11.209L399.888 21.2707L394.58 15.9632L404.642 5.9015L400.758 2.01758L415.54 0.311401L413.834 15.093Z" fill="#444444"/>
<path d="M440.834 15.093L436.95 11.209L426.888 21.2707L421.58 15.9632L431.642 5.9015L427.758 2.01758L442.54 0.311401L440.834 15.093Z" fill="#444444"/>
<path d="M467.834 15.093L463.95 11.209L453.888 21.2707L448.58 15.9632L458.642 5.9015L454.758 2.01758L469.54 0.311401L467.834 15.093Z" fill="#444444"/>
<path d="M494.834 15.093L490.95 11.209L480.888 21.2707L475.58 15.9632L485.642 5.9015L481.758 2.01758L496.54 0.311401L494.834 15.093Z" fill="#444444"/>
<path d="M521.834 15.093L517.95 11.209L507.888 21.2707L502.58 15.9632L512.642 5.9015L508.758 2.01758L523.54 0.311401L521.834 15.093Z" fill="#444444"/>
<path d="M548.834 15.093L544.95 11.209L534.888 21.2707L529.58 15.9632L539.642 5.9015L535.758 2.01758L550.54 0.311401L548.834 15.093Z" fill="#444444"/>
<path d="M575.834 15.093L571.95 11.209L561.888 21.2707L556.58 15.9632L566.642 5.9015L562.758 2.01758L577.54 0.311401L575.834 15.093Z" fill="#444444"/>
<path d="M602.834 15.093L598.95 11.209L588.888 21.2707L583.58 15.9632L593.642 5.9015L589.758 2.01758L604.54 0.311401L602.834 15.093Z" fill="#444444"/>
</g>
</svg>
